<svg width="397" height="466" viewBox="0 0 397 466" fill="none" xmlns="http://www.w3.org/2000/svg">
<mask id="mask0_781_1314" style="mask-type:alpha" maskUnits="userSpaceOnUse" x="2" y="24" width="393" height="440">
<path d="M2 65.9778C2 35.9425 33.934 16.6919 61.6029 28.3774C160.932 70.3273 234.999 70.4923 335.493 28.1969C363.141 16.5606 395 35.8183 395 65.8151V377.358C395 409.082 357.793 430.711 326.667 424.576C294.521 418.241 255.158 418.996 218 442.5C156.513 481.393 67.5851 457.447 25.6178 442.422C10.9807 437.182 2 423.061 2 407.514V65.9778Z" fill="white"/>
</mask>
<g mask="url(#mask0_781_1314)">
<rect width="393" height="464" transform="translate(2)" fill="white"/>
<g filter="url(#filter0_f_781_1314)">
<path d="M12 409.449C40.7699 407.872 100.545 468.346 112.36 501.496" stroke="#FFD700" stroke-opacity="0.7" stroke-width="1.5"/>
<path d="M88.062 -25.0001C85.651 3.71187 17.5028 54.5635 -16.9614 61.6876" stroke="#FFD700" stroke-opacity="0.7" stroke-width="1.5"/>
<path d="M-42.9976 306.203C0.644981 165.624 295.898 6.91849 422.281 19.8971" stroke="#FFD700" stroke-opacity="0.7" stroke-width="1.5"/>
<path d="M-38.0009 167.055C74.1881 128.753 337.771 266.474 400.008 365.95" stroke="#FFD700" stroke-opacity="0.7" stroke-width="1.5"/>
<path d="M2.00273 578.262C46.3532 432.556 333.94 268.356 455.769 281.964" stroke="#FFD700" stroke-opacity="0.7" stroke-width="1.5"/>
<path d="M412.443 544.154C397.307 523.526 247.134 402.663 427.231 358.982" stroke="#FFD700" stroke-opacity="0.7" stroke-width="1.5"/>
</g>
</g>
<defs>
<filter id="filter0_f_781_1314" x="-47.7139" y="-29.0625" width="507.566" height="611.543" filterUnits="userSpaceOnUse" color-interpolation-filters="sRGB">
<feFlood flood-opacity="0" result="BackgroundImageFix"/>
<feBlend mode="normal" in="SourceGraphic" in2="BackgroundImageFix" result="shape"/>
<feGaussianBlur stdDeviation="2" result="effect1_foregroundBlur_781_1314"/>
</filter>
</defs>
</svg>
