<svg width="556" height="474" viewBox="0 0 556 474" fill="none" xmlns="http://www.w3.org/2000/svg">
<path d="M292.08 207.867C294.222 210.29 295.865 212.68 297.01 215.037C298.108 217.34 298.877 219.696 299.317 222.105C299.756 224.513 299.967 226.98 299.948 229.507C299.882 231.98 299.78 234.625 299.641 237.44C299.449 240.302 299.294 243.364 299.176 246.627C299.064 249.791 299.158 253.242 299.459 256.979C299.973 264.249 300.917 271.102 302.289 277.538C303.714 283.928 305.329 290.107 307.133 296.076C308.944 301.946 310.865 307.675 312.895 313.263C314.872 318.896 316.722 324.546 318.447 330.212C320.171 335.879 321.586 341.673 322.692 347.595C323.898 353.524 324.585 359.715 324.754 366.169C324.915 371.979 324.482 377.699 323.453 383.329C322.477 388.913 320.983 394.389 318.97 399.755C317.004 405.174 314.568 410.487 311.664 415.694C308.813 420.855 305.623 425.845 302.094 430.664C299.382 434.496 296.936 438.099 294.756 441.471C292.63 444.798 290.828 447.75 289.353 450.327C287.778 452.898 286.485 454.992 285.475 456.609C284.512 458.279 283.79 459.321 283.312 459.735C283.046 459.965 282.76 460.119 282.454 460.198C282.248 460.283 282.029 460.194 281.796 459.931C281.563 459.667 281.483 459.365 281.556 459.022C281.629 458.68 281.762 458.194 281.954 457.562C283.117 454.419 284.389 450.763 285.771 446.593C287.153 442.424 288.527 437.981 289.896 433.265C291.264 428.55 292.569 423.657 293.811 418.586C295.152 413.521 296.341 408.497 297.376 403.511C298.412 398.525 299.261 393.701 299.925 389.037C300.688 384.38 301.178 380.052 301.396 376.052C302.124 364.454 301.947 353.638 300.866 343.604C299.885 333.577 298.458 324.214 296.587 315.515C294.715 306.815 292.631 298.672 290.334 291.084C288.03 283.595 285.9 276.514 283.942 269.841C282.038 263.122 280.51 256.775 279.357 250.8C278.211 244.726 277.927 238.884 278.503 233.273C279.06 227.214 280.248 221.818 282.068 217.083C283.889 212.348 286.527 208.486 289.984 205.496L292.08 207.867ZM292.826 282.597C291.362 280.517 289.958 278.292 288.614 275.922C287.264 273.651 285.976 271.186 284.751 268.526C283.573 265.92 282.512 263.073 281.566 259.987C280.568 256.946 279.789 253.623 279.229 250.017C278.562 245.76 278.159 241.694 278.018 237.819C277.823 233.99 277.878 230.177 278.183 226.382C278.494 222.487 279.058 218.561 279.875 214.601C280.698 210.543 281.76 206.277 283.062 201.805C278.979 200.689 275.284 199.004 271.978 196.751C268.726 194.451 265.376 191.352 261.93 187.454C260.72 186.084 259.339 184.257 257.789 181.972C256.239 179.688 254.339 176.636 252.09 172.818C248.989 167.506 246.643 162.145 245.052 156.735C243.414 151.273 242.95 145.493 243.659 139.395C244.343 134.435 245.634 130.111 247.535 126.423C249.442 122.635 251.805 119.523 254.624 117.085C256.751 115.245 259.144 113.919 261.804 113.106C264.417 112.24 267.14 111.977 269.973 112.316C272.806 112.654 275.673 113.614 278.572 115.197C281.426 116.726 284.156 118.966 286.764 121.916C287.882 123.18 289.076 124.797 290.347 126.765C291.571 128.681 292.835 130.748 294.139 132.966C295.444 135.185 296.771 137.43 298.122 139.701C299.466 142.071 300.797 144.266 302.114 146.287L303.032 146.051C304.247 142.119 305.177 138.34 305.82 134.716C306.471 130.993 306.779 127.52 306.744 124.296C306.663 121.02 306.21 118.065 305.385 115.433C304.612 112.754 303.411 110.493 301.781 108.649C298.987 105.489 295.286 102.415 290.676 99.4303C286.067 96.4451 280.916 94.0678 275.223 92.2985C266.936 89.612 259.521 88.4954 252.978 88.9489C246.488 89.3563 240.903 91.5838 236.223 95.6313C230.692 100.415 228.134 106.438 228.549 113.702C228.917 120.912 232.77 129.199 240.108 138.562C241.532 140.492 241.738 141.893 240.728 142.767C240.143 143.273 239.272 143.19 238.115 142.517C236.964 141.746 235.434 140.281 233.525 138.121C231.522 135.856 229.4 133.136 227.158 129.963C224.969 126.744 222.896 123.284 220.94 119.585C219.037 115.839 217.393 111.963 216.008 107.955C214.624 103.947 213.734 100.021 213.341 96.1789C212.927 91.889 213.354 87.7547 214.623 83.7758C215.892 79.797 218.281 76.2898 221.791 73.2542C224.503 70.9085 227.848 69.2246 231.824 68.2026C235.8 67.1806 240.086 66.7741 244.681 66.983C249.283 67.0932 254.048 67.7596 258.976 68.982C263.904 70.2044 268.749 71.9168 273.511 74.1193C278.279 76.2231 282.769 78.7543 286.979 81.7127C291.243 84.6252 294.958 87.8726 298.124 91.4549C299.894 93.4568 301.857 95.9424 304.012 98.9118C306.174 101.783 308.323 104.851 310.459 108.116C312.595 111.381 314.581 114.637 316.418 117.882C318.307 121.082 319.795 123.932 320.879 126.433C322.923 131.08 324.144 135.647 324.545 140.134C324.999 144.575 324.901 149.029 324.25 153.495C323.6 157.962 322.495 162.497 320.934 167.1C319.373 171.704 317.625 176.468 315.692 181.394C313.805 186.372 311.852 191.593 309.832 197.058C307.866 202.477 306.049 208.277 304.382 214.46C302.769 220.596 301.451 227.173 300.43 234.192C299.461 241.164 299.058 248.67 299.221 256.71C299.308 259.888 299.239 262.782 299.014 265.394C298.789 268.005 298.481 270.364 298.089 272.468C297.691 274.672 297.183 276.645 296.565 278.388C295.947 280.13 295.286 281.771 294.582 283.31L292.826 282.597ZM295.795 159.839C296.299 155.314 296.187 151.366 295.461 147.997C294.735 144.628 293.627 142.101 292.137 140.415C290.554 138.624 288.745 137.214 286.709 136.185C284.628 135.104 282.466 134.464 280.225 134.264C277.937 134.011 275.643 134.229 273.343 134.918C271.095 135.56 268.988 136.732 267.02 138.434C264.201 140.871 262.005 143.747 260.43 147.061C258.861 150.277 257.839 153.578 257.361 156.966C256.837 160.301 256.821 163.521 257.315 166.627C257.808 169.732 258.686 172.319 259.951 174.386C261.674 176.335 263.633 177.755 265.827 178.646C267.975 179.483 270.257 179.835 272.67 179.699C275.084 179.563 277.531 178.935 280.011 177.812C282.544 176.644 285.007 175.025 287.401 172.955C289.794 170.885 291.562 168.799 292.705 166.695C293.855 164.492 294.885 162.207 295.795 159.839Z" fill="black"/>
<path d="M143.871 245.482C144.785 244.957 145.476 244.884 145.944 245.264C146.437 245.549 146.844 245.964 147.164 246.51C147.698 247.419 148.133 248.507 148.469 249.774C148.866 251.005 149.219 252.302 149.53 253.664C149.876 255.087 150.27 256.523 150.713 257.971C151.181 259.324 151.753 260.577 152.429 261.729C153.817 264.094 155.5 265.641 157.477 266.37C159.48 267.004 161.705 267.185 164.155 266.913C166.569 266.581 169.198 265.922 172.044 264.936C174.864 264.046 177.763 263.152 180.741 262.252C183.744 261.257 186.824 260.462 189.979 259.866C193.135 259.269 196.26 259.177 199.356 259.589C204.722 260.398 209.137 262.363 212.599 265.483C216.061 268.603 219.108 272.406 221.742 276.893C223.771 280.35 225.912 284.552 228.165 289.502C230.383 294.39 232.763 299.834 235.306 305.833C238.825 314.19 241.224 322.582 242.503 331.01C243.842 339.403 244.251 347.6 243.73 355.601C243.245 363.664 241.916 371.4 239.744 378.81C237.632 386.184 234.867 393.002 231.449 399.262C228.092 405.487 224.168 411.025 219.677 415.874C215.283 420.749 210.555 424.64 205.494 427.546C197.873 431.923 190.355 434.255 182.94 434.54C175.561 434.886 168.492 433.676 161.732 430.91C155.033 428.108 148.816 423.976 143.082 418.513C137.383 413.11 132.434 406.831 128.233 399.676C124.674 393.612 121.697 387.498 119.301 381.334C117.002 375.195 115.244 368.867 114.027 362.349C112.871 355.797 112.269 349.008 112.221 341.981C112.199 334.859 112.714 327.266 113.769 319.201C114.311 315.403 114.846 312.218 115.374 309.644C115.927 306.975 116.48 304.793 117.034 303.097C117.552 301.34 118.052 300.039 118.534 299.194C118.981 298.289 119.418 297.714 119.845 297.469C120.211 297.259 120.612 297.109 121.049 297.02C121.486 296.932 121.811 297.069 122.025 297.433C122.523 298.282 122.62 299.28 122.316 300.428C120.403 310.364 119.313 319.341 119.047 327.359C118.744 335.316 119.009 342.502 119.839 348.917C120.73 355.297 122.066 360.975 123.847 365.953C125.627 370.93 127.656 375.359 129.934 379.24C133.85 385.91 138.181 391.206 142.929 395.128C147.677 399.05 152.597 401.737 157.69 403.191C162.783 404.644 167.944 404.964 173.173 404.15C178.463 403.301 183.577 401.459 188.516 398.622C193.881 395.541 198.769 391.436 203.179 386.309C207.649 381.148 211.532 375.471 214.828 369.281C218.221 363.117 220.994 356.659 223.146 349.91C225.299 343.16 226.771 336.639 227.561 330.348C228.449 324.081 228.604 318.235 228.028 312.81C227.549 307.409 226.294 302.981 224.266 299.525C222.949 297.281 221.324 295.417 219.393 293.932C217.486 292.351 215.169 291.25 212.439 290.628C209.771 289.971 206.564 289.786 202.819 290.072C199.074 290.358 194.711 291.12 189.731 292.359C185.488 293.742 181.534 294.715 177.87 295.279C174.171 295.782 170.751 295.719 167.61 295.09C164.433 294.401 161.496 293.008 158.796 290.909C156.061 288.75 153.519 285.67 151.17 281.667C149.711 279.181 148.383 276.295 147.188 273.009C145.993 269.722 144.955 265.94 144.074 261.662C143.163 256.915 142.681 253.178 142.63 250.451C142.542 247.664 142.956 246.007 143.871 245.482ZM159.915 171.566C161.068 168.391 162.528 164.836 164.295 160.902C166.062 156.968 167.997 152.695 170.1 148.082C172.166 143.409 174.34 138.431 176.62 133.149C178.925 127.771 181.162 122.067 183.33 116.038L181.668 115.29L167.949 123.169C159.901 127.791 153.334 132.09 148.248 136.065C143.162 140.04 139.286 143.644 136.619 146.879C133.952 150.113 132.337 152.986 131.774 155.499C131.175 157.951 131.356 159.996 132.317 161.633C133.029 162.846 134.076 163.866 135.459 164.693C136.806 165.46 138.462 166.13 140.429 166.703C142.422 167.181 144.681 167.626 147.207 168.041C149.697 168.394 152.454 168.716 155.478 169.006C156.896 168.922 158.05 169.638 158.94 171.153L159.915 171.566ZM150.222 272.969C149.917 273.144 149.602 273.163 149.277 273.025C148.951 272.888 148.652 272.655 148.377 272.326C148.077 272.093 147.82 271.794 147.607 271.43C147.429 271.127 147.269 270.854 147.126 270.612C146.77 270.005 146.318 268.887 145.768 267.257C145.219 265.626 144.667 263.714 144.112 261.519C143.558 259.324 143.054 256.938 142.6 254.36C142.086 251.817 141.681 249.253 141.386 246.666C140.856 242.43 140.641 238.175 140.741 233.901C140.867 229.532 141.363 225.03 142.231 220.397C143.098 215.764 144.38 210.933 146.076 205.906C147.832 200.843 150.024 195.409 152.649 189.604L152.405 188.771C147.439 187.812 143.045 186.16 139.223 183.815C135.401 181.469 132.226 178.144 129.699 173.839C127.492 170.079 125.775 165.836 124.549 161.108C123.383 156.345 122.8 151.531 122.798 146.667C122.69 141.622 123.362 137.141 124.814 133.226C126.327 129.276 128.356 125.719 130.901 122.555C133.472 119.295 136.474 116.354 139.909 113.733C143.343 111.112 146.976 108.62 150.807 106.258C154.603 103.835 158.495 101.437 162.483 99.0656C166.411 96.7289 170.189 94.2756 173.816 91.7057C177.408 89.0751 180.718 86.2418 183.746 83.2055C186.799 80.0737 189.355 76.5793 191.412 72.7223L192.57 73.0298C194.499 81.7326 195.856 89.6693 196.641 96.8399C197.487 103.976 198 110.613 198.18 116.753C197.846 122.296 197.187 127.215 196.203 131.51C195.279 135.77 194.381 139.448 193.508 142.544C192.001 148.031 190.158 153.711 187.979 159.584C185.862 165.421 183.557 171.286 181.064 177.177C178.631 183.033 176.115 188.816 173.515 194.525C170.95 200.295 168.498 205.839 166.157 211.156C163.78 216.413 161.589 221.361 159.583 225.999C157.577 230.638 155.952 234.814 154.708 238.528C152.891 243.626 151.7 248.404 151.138 252.862C150.54 257.26 150.589 261.65 151.287 266.033C151.44 267.405 151.545 268.764 151.601 270.11C151.596 271.491 151.137 272.444 150.222 272.969Z" fill="black"/>
<path d="M417.899 372.9C421.59 372.9 424.347 373.86 426.168 375.78C427.989 377.699 428.899 380.431 428.899 383.974C428.899 387.813 427.866 390.816 425.799 392.981C423.731 395.147 420.778 396.23 416.939 396.23C413.395 396.23 410.639 395.27 408.67 393.351C406.702 391.382 405.717 388.576 405.717 384.934C405.717 381.046 406.8 378.068 408.966 376.001C411.131 373.934 414.109 372.9 417.899 372.9Z" fill="black"/>
<path d="M198.699 199.226C202.391 199.226 205.147 200.186 206.968 202.106C208.789 204.025 209.7 206.757 209.7 210.301C209.7 214.14 208.666 217.142 206.599 219.308C204.532 221.473 201.579 222.556 197.739 222.556C194.196 222.556 191.439 221.596 189.471 219.677C187.502 217.708 186.518 214.903 186.518 211.26C186.518 207.372 187.6 204.394 189.766 202.327C191.932 200.26 194.909 199.226 198.699 199.226Z" fill="black"/>
<path d="M384.598 202.554C385.067 202.231 385.591 201.986 386.169 201.818C386.799 201.615 387.224 201.668 387.442 201.979C387.624 202.237 387.694 202.612 387.652 203.102C387.662 203.556 387.487 204.022 387.127 204.5C382.98 210.043 379.337 215.201 376.196 219.975C373.019 224.696 370.243 229.219 367.868 233.542C365.458 237.813 363.406 241.99 361.714 246.074C359.986 250.106 358.567 254.193 357.459 258.336C355.859 264.2 354.95 269.781 354.731 275.078C354.475 280.324 354.707 285.273 355.426 289.925C356.198 294.54 357.394 298.825 359.015 302.779C360.689 306.698 362.636 310.235 364.857 313.393C368.607 318.724 372.567 322.758 376.737 325.496C380.943 328.285 385.179 330.017 389.444 330.692C393.746 331.418 397.992 331.184 402.181 329.991C406.407 328.849 410.396 326.987 414.15 324.404C419.154 320.959 423.312 316.753 426.625 311.784C429.99 306.779 432.624 301.395 434.526 295.63C436.428 289.866 437.637 283.886 438.154 277.692C438.707 271.55 438.7 265.602 438.133 259.847C437.602 254.143 436.524 248.817 434.899 243.867C433.362 238.933 431.41 234.784 429.043 231.42C427.041 228.573 424.395 225.747 421.105 222.941C417.816 220.135 414.191 217.291 410.23 214.41C406.232 211.477 401.959 208.426 397.409 205.259C392.896 202.143 388.404 198.782 383.933 195.176C379.462 191.57 375.109 187.691 370.873 183.539C366.637 179.388 362.789 174.853 359.33 169.937C356.126 165.382 353.256 160.367 350.72 154.892C348.235 149.381 346.273 143.127 344.832 136.13C344.277 133.362 344.17 130.9 344.511 128.745C344.867 126.503 345.802 124.861 347.313 123.821L348.11 123.964C349.494 125.93 350.502 128.463 351.134 131.561C351.782 134.572 352.326 137.655 352.765 140.809C353.019 142.709 353.564 144.638 354.4 146.597C355.237 148.556 356.402 150.597 357.895 152.719C360.771 156.808 364.072 160.566 367.799 163.993C371.577 167.384 375.564 170.632 379.759 173.736C383.918 176.788 388.189 179.725 392.572 182.546C396.955 185.368 401.172 188.227 405.222 191.124C409.271 194.021 413.068 197.054 416.612 200.222C420.209 203.355 423.281 206.732 425.83 210.355C427.578 212.84 429.377 215.673 431.228 218.854C433.132 221.999 435.159 225.597 437.312 229.646C442.97 239.118 447.279 248.213 450.239 256.93C453.288 265.663 455.233 273.926 456.074 281.72C456.915 289.515 456.819 296.801 455.786 303.581C454.753 310.361 453.028 316.541 450.61 322.123C448.193 327.705 445.206 332.641 441.649 336.933C438.128 341.277 434.335 344.848 430.269 347.647C424.483 351.629 418.521 354.042 412.384 354.886C406.335 355.746 400.39 355.268 394.547 353.451C388.704 351.635 383.1 348.617 377.734 344.398C372.367 340.18 367.518 334.991 363.185 328.832C362.165 327.383 360.943 325.535 359.518 323.29C358.13 321.096 356.741 318.518 355.354 315.555C354.002 312.644 352.714 309.383 351.488 305.771C350.262 302.159 349.347 298.219 348.742 293.949C348.1 289.628 347.831 285.012 347.935 280.101C348.039 275.19 348.701 269.972 349.92 264.447C351.642 256.886 353.907 249.988 356.716 243.753C359.577 237.482 362.627 231.81 365.867 226.738C369.071 221.614 372.331 217.065 375.648 213.092C378.965 209.119 381.948 205.606 384.598 202.554ZM478.688 221.485C478.823 222.007 478.905 222.565 478.936 223.158C478.967 223.752 478.852 224.138 478.591 224.317C478.435 224.425 478.185 224.29 477.841 223.912C477.55 223.498 477.259 223.084 476.968 222.669C476.312 221.738 475.054 219.454 473.193 215.819C471.332 212.184 468.471 207.623 464.612 202.137C457.985 192.717 451.303 183.988 444.565 175.951C437.843 167.825 431.22 160.555 424.694 154.138C418.132 147.67 411.723 142.133 405.466 137.529C399.209 132.924 393.251 129.458 387.591 127.132C381.895 124.753 376.578 123.574 371.64 123.593C366.613 123.596 362.119 124.961 358.157 127.687C356.02 129.158 354.518 131.037 353.651 133.324C352.747 135.559 352.494 138.114 352.893 140.99C353.234 143.674 353.44 145.837 353.511 147.478C353.53 149.155 353.477 150.728 353.35 152.198L352.615 152.473L351.305 150.61C350.358 149.264 349.258 147.371 348.005 144.93C346.7 142.525 345.685 139.652 344.959 136.311C344.192 132.691 343.843 129.281 343.914 126.083C343.933 122.92 344.293 120.023 344.994 117.389C345.642 114.792 346.598 112.521 347.86 110.577C349.071 108.668 350.51 107.14 352.178 105.992C356.192 103.229 360.819 101.888 366.059 101.968C371.263 101.997 376.864 103.25 382.862 105.728C388.824 108.154 395.048 111.667 401.534 116.268C408.036 120.781 414.609 126.166 421.255 132.423C427.864 138.628 434.436 145.551 440.971 153.19C447.469 160.778 453.722 168.841 459.73 177.381C464.536 184.213 468.078 189.688 470.355 193.805C472.685 197.886 474.114 201.127 474.643 203.529C475.395 206.468 476.124 209.538 476.829 212.74C477.587 215.906 478.206 218.821 478.688 221.485Z" fill="black"/>
<path d="M420.071 305.076C419.931 306.693 419.825 308.31 419.755 309.927C419.685 311.544 419.649 313.162 419.649 314.779C419.438 323.99 418.454 332.146 416.696 339.248C415.009 346.349 412.724 352.607 409.841 358.021C406.958 363.365 403.548 367.97 399.61 371.837C395.743 375.705 391.524 379.044 386.954 381.857C382.032 384.951 376.935 387.341 371.661 389.029C366.458 390.787 361.431 392.158 356.579 393.142C351.798 394.126 347.403 394.865 343.395 395.357C339.388 395.849 336.188 396.341 333.798 396.833C332.603 397.044 331.372 397.326 330.106 397.677C328.841 398.029 327.681 398.38 326.626 398.732C325.501 399.083 324.517 399.365 323.673 399.576C322.899 399.857 322.407 399.998 322.196 399.998C321.071 399.998 320.509 399.716 320.509 399.154C320.509 398.943 320.86 398.591 321.563 398.099C322.267 397.607 323.11 397.044 324.095 396.412C325.079 395.779 326.099 395.146 327.153 394.513C328.278 393.951 329.228 393.458 330.001 393.037C343.36 385.935 355.103 378.623 365.228 371.099C375.423 363.576 383.895 356.333 390.645 349.373C397.466 342.341 402.599 335.802 406.044 329.755C409.489 323.709 411.212 318.576 411.212 314.357C411.212 312.107 410.825 309.998 410.052 308.029C409.278 305.99 407.977 304.232 406.149 302.755H405.095C402.212 305.287 399.399 307.115 396.657 308.24C393.915 309.365 391.102 309.927 388.22 309.927C385.337 309.927 382.735 309.435 380.415 308.451C378.165 307.396 376.196 306.06 374.509 304.443C372.892 302.755 371.626 300.927 370.712 298.959C369.868 296.919 369.446 294.88 369.446 292.841C369.446 291.365 369.622 289.431 369.974 287.041C370.325 284.58 370.782 281.943 371.345 279.13C371.907 276.248 372.505 273.294 373.138 270.271C373.841 267.177 374.509 264.294 375.142 261.623C375.634 259.443 376.302 257.404 377.145 255.505C377.989 253.537 379.009 251.884 380.204 250.548C381.47 249.142 382.911 248.052 384.528 247.279C386.216 246.435 388.079 246.013 390.118 246.013C392.72 246.013 395.181 246.541 397.501 247.595C399.821 248.58 401.931 249.986 403.829 251.814C405.798 253.642 407.556 255.822 409.102 258.353C410.649 260.814 411.985 263.521 413.11 266.474C414.446 269.99 415.571 273.365 416.485 276.599C417.399 279.834 418.102 283.033 418.595 286.197C419.157 289.291 419.544 292.419 419.755 295.584C419.966 298.677 420.071 301.841 420.071 305.076Z" fill="#F6D000"/>
</svg>
