<svg width="155" height="38" viewBox="0 0 155 38" fill="none" xmlns="http://www.w3.org/2000/svg">
<g filter="url(#filter0_d_198_2966)">
<path d="M146.728 5.61919C146.75 5.30545 147.012 5.06251 147.326 5.06251L150.766 5.06252C151.11 5.06252 151.384 5.35147 151.365 5.69515L150.413 23.1803C150.396 23.4873 150.15 23.732 149.843 23.7469L146.076 23.9297C145.717 23.9472 145.423 23.6462 145.449 23.2871L146.728 5.61919Z" fill="black"/>
<path d="M91.7278 7.21904C91.7505 6.9053 92.0116 6.66237 92.3262 6.66237L95.7662 6.66237C96.1104 6.66237 96.3841 6.95132 96.3654 7.295L95.413 24.7801C95.3963 25.0872 95.1501 25.3319 94.843 25.3468L91.0762 25.5296C90.7166 25.547 90.4227 25.2461 90.4487 24.887L91.7278 7.21904Z" fill="black"/>
<path d="M99.8875 3.37641C99.8944 3.05442 100.154 2.79527 100.476 2.78928L142.249 2.0121C142.6 2.00558 142.881 2.29959 142.859 2.64943L142.634 6.24658C142.615 6.55903 142.358 6.80395 142.045 6.80907L100.423 7.48981C100.083 7.49538 99.8058 7.21727 99.8131 6.87713L99.8875 3.37641Z" fill="black"/>
<path d="M137.4 6.00799C137.4 5.77152 137.539 5.55711 137.755 5.46043L141.915 3.5966C142.321 3.41431 142.778 3.72375 142.759 4.16922L142.392 12.9488L141.781 20.2782C141.404 22.9207 140.534 23.9426 137.983 23.9976C137.659 24.0046 137.4 23.7364 137.4 23.4118V6.00799Z" fill="black"/>
<path d="M100.1 20.8L111.2 20.1L138.8 19.5L138.2 24L110.8 24.6H100.7L100.1 20.8Z" fill="black"/>
<path d="M119.4 11.2814C119.4 10.9574 119.657 10.6919 119.981 10.6817L129 10.3999C132.057 10.3999 132.968 13.0597 133.007 15.2002C133.012 15.4899 132.791 15.7283 132.504 15.7675L129.036 16.2405C128.776 16.2759 128.535 16.1302 128.373 15.9245C128.049 15.5135 127.523 15.2717 126.5 15.2999H120C119.669 15.2999 119.4 15.0313 119.4 14.6999V11.2814Z" fill="black"/>
<path d="M128.9 19.9C128.9 19.9 129 16.9 128.2 15.8C127.4 14.7 132.3 10.4413 132.9 13.9C133.5 17.3587 133.594 17.8273 133.594 19.7049C133.594 21.5825 134.2 24.1 134.2 24.1L119.7 24.4L119.6 20L128.9 19.9Z" fill="black"/>
<path d="M20.9849 17.1324C20.9946 16.9829 21.0597 16.8425 21.1676 16.7386L25.2186 12.8406C25.6089 12.465 26.2578 12.7581 26.234 13.2993L25.9274 20.2737C25.9124 20.6151 26.1851 20.9 26.5269 20.9H47.4999C47.8313 20.9 48.0999 21.1687 48.0999 21.5V25.21C48.0999 25.5375 47.8374 25.8044 47.5099 25.8099L24.1999 26.2H21.0399C20.6933 26.2 20.4188 25.9073 20.4411 25.5614L20.9849 17.1324Z" fill="black"/>
<path d="M32.6001 12.4816C32.6001 12.1576 32.8574 11.8921 33.1814 11.8819L42.2001 11.6001C45.2568 11.6001 46.1685 14.2599 46.2069 16.4004C46.2121 16.6901 45.9916 16.9285 45.7045 16.9677L42.2358 17.4407C41.9764 17.4761 41.7348 17.3304 41.5729 17.1247C41.2493 16.7137 40.7233 16.4719 39.7001 16.5001H33.2001C32.8687 16.5001 32.6001 16.2315 32.6001 15.9001V12.4816Z" fill="black"/>
<path d="M42.0998 21.1C42.0998 21.1 42.1998 18.1 41.3998 17C40.5998 15.9 45.4999 11.6412 46.0998 15.1C46.6997 18.5587 46.7936 19.0273 46.7936 20.9049C46.7936 22.7825 47.3998 25.3 47.3998 25.3L32.8998 25.6L32.7998 21.2L42.0998 21.1Z" fill="black"/>
<path d="M124.281 28.4678C124.292 28.1494 124.55 27.8947 124.868 27.888L128.362 27.8136C128.708 27.8063 128.989 28.0919 128.975 28.4375L128.9 30.3L128.673 31.8121C128.631 32.0956 128.394 32.3094 128.107 32.3225L124.827 32.4715C124.486 32.4871 124.2 32.2142 124.2 31.8722V30.9L124.281 28.4678Z" fill="black"/>
<path d="M35.481 28.4678C35.4916 28.1494 35.7493 27.8947 36.0679 27.888L39.5621 27.8136C39.9079 27.8063 40.1882 28.0919 40.1744 28.4375L40.0999 30.3L39.8731 31.8121C39.8306 32.0956 39.5934 32.3094 39.307 32.3225L36.0271 32.4715C35.6854 32.4871 35.3999 32.2142 35.3999 31.8722V30.9L35.481 28.4678Z" fill="black"/>
<g filter="url(#filter1_d_198_2966)">
<path d="M112.748 11.9114L112 20.9827L111.701 25.5696C111.7 25.5784 111.7 25.5868 111.7 25.5956C111.692 25.8653 111.548 30.3162 109.9 31.3828C108.327 32.4003 74.6671 32.4766 69.6287 32.4823C69.2777 32.4827 69.025 32.1828 69.0542 31.8329L69.3549 28.2241C69.3805 27.9168 69.6348 27.679 69.9431 27.674L88 27.3828L106.8 27.1V24.7C106.8 24.7 99.5 25.6 98.5 23.6C97.5 21.6 98.3 12.9828 99.8 11.7828C100.751 11.0217 109.712 11.2008 112.176 11.2651C112.519 11.274 112.776 11.5694 112.748 11.9114Z" fill="black"/>
<path d="M112.748 11.9114L112 20.9827L111.701 25.5696C111.7 25.5784 111.7 25.5868 111.7 25.5956C111.692 25.8653 111.548 30.3162 109.9 31.3828C108.327 32.4003 74.6671 32.4766 69.6287 32.4823C69.2777 32.4827 69.025 32.1828 69.0542 31.8329L69.3549 28.2241C69.3805 27.9168 69.6348 27.679 69.9431 27.674L88 27.3828L106.8 27.1V24.7C106.8 24.7 99.5 25.6 98.5 23.6C97.5 21.6 98.3 12.9828 99.8 11.7828C100.751 11.0217 109.712 11.2008 112.176 11.2651C112.519 11.274 112.776 11.5694 112.748 11.9114Z" stroke="black" stroke-width="0.2"/>
</g>
<g filter="url(#filter2_i_198_2966)">
<path d="M102.553 16.3219C102.58 16.023 102.824 15.7902 103.124 15.7768L106.43 15.6299C106.788 15.614 107.079 15.9123 107.056 16.2692L106.837 19.5521C106.816 19.8623 106.562 20.1053 106.251 20.112L102.872 20.1855C102.514 20.1933 102.229 19.8879 102.261 19.5313L102.553 16.3219Z" fill="white"/>
</g>
<path d="M56.8999 22.8999L57.4999 21.6999L84.6999 21.3999V25.4999L57.0999 26.1999L56.8999 24.6999V22.8999Z" fill="black"/>
<g filter="url(#filter3_d_198_2966)">
<path d="M58.4464 13.2494L57.6999 22.3001L57.4008 26.5869C57.4002 26.5957 57.3998 26.6039 57.3995 26.6127C57.3915 26.8555 57.2436 30.5365 55.5999 31.6001C54.1241 32.555 44.5096 32.3795 41.9989 32.3166C41.6661 32.3083 41.4103 32.0293 41.4231 31.6967L41.5777 27.677C41.5901 27.3549 41.8549 27.1001 42.1773 27.1001H52.2999L53.8999 12.6001H57.8484C58.1992 12.6001 58.4752 12.8998 58.4464 13.2494Z" fill="black"/>
<path d="M58.4464 13.2494L57.6999 22.3001L57.4008 26.5869C57.4002 26.5957 57.3998 26.6039 57.3995 26.6127C57.3915 26.8555 57.2436 30.5365 55.5999 31.6001C54.1241 32.555 44.5096 32.3795 41.9989 32.3166C41.6661 32.3083 41.4103 32.0293 41.4231 31.6967L41.5777 27.677C41.5901 27.3549 41.8549 27.1001 42.1773 27.1001H52.2999L53.8999 12.6001H57.8484C58.1992 12.6001 58.4752 12.8998 58.4464 13.2494Z" stroke="black" stroke-width="0.2"/>
</g>
<path d="M65.755 11.945C65.7805 11.6362 66.0371 11.3976 66.347 11.3945L83.5173 11.2237C84.8014 11.2109 85.8235 12.296 85.7339 13.577L84.9001 25.5L65.2647 25.8869C64.9092 25.8939 64.6256 25.5919 64.6549 25.2375L65.755 11.945Z" fill="black"/>
<rect width="10.2" height="4.7" transform="translate(70 15.3999)" fill="black"/>
<g filter="url(#filter4_i_198_2966)">
<path d="M70.2206 16.3133C70.2655 15.7965 70.6981 15.3999 71.2168 15.3999H71.8H72.6C73.1523 15.3999 73.6 15.8476 73.6 16.3999V17.6171C73.6 17.6722 73.5954 17.7272 73.5864 17.7815L73.3393 19.2643C73.2589 19.7465 72.8417 20.0999 72.3529 20.0999H71.6H71.0425C70.4739 20.0999 70.0197 19.6264 70.0434 19.0583L70.1 17.6999L70.2206 16.3133Z" fill="white"/>
</g>
<g filter="url(#filter5_i_198_2966)">
<path d="M76.8207 16.3133C76.8656 15.7965 77.2982 15.3999 77.8169 15.3999H78.4001H79.2001C79.7524 15.3999 80.2001 15.8476 80.2001 16.3999V17.6171C80.2001 17.6722 80.1955 17.7272 80.1865 17.7815L79.9394 19.2643C79.859 19.7465 79.4418 20.0999 78.953 20.0999H78.2001H77.6426C77.074 20.0999 76.6198 19.6264 76.6435 19.0583L76.7001 17.6999L76.8207 16.3133Z" fill="white"/>
</g>
<path d="M18.7446 16.9879L22.7 16.9L25.3088 17.063C25.6366 17.0835 25.9199 16.8367 25.9446 16.5093L26.2488 12.478C26.276 12.118 25.9814 11.8158 25.6208 11.8336L16.0123 12.3101C14.96 12.3623 14.0924 13.1532 13.9434 14.1963L12.9736 20.9848C12.9314 21.2804 12.6782 21.5 12.3796 21.5H9.64629C9.29738 21.5 9.02206 21.2034 9.04794 20.8554L9.85951 9.9443C9.88246 9.6357 10.1364 9.39518 10.4457 9.38893L88.5611 7.81084C88.8676 7.80465 89.1201 7.56837 89.1467 7.26294L89.4421 3.86534C89.473 3.50995 89.1889 3.20625 88.8322 3.21348L6.14624 4.88888C5.83664 4.89516 5.58267 5.13601 5.56001 5.44484L4.17719 24.2857C4.08219 25.5801 5.1226 26.675 6.42017 26.6462L16.9554 26.4121C17.2643 26.4052 17.5175 26.1649 17.5405 25.8568L18.1595 17.5431C18.1825 17.235 18.4357 16.9947 18.7446 16.9879Z" fill="black" stroke="black" stroke-width="0.2"/>
</g>
<defs>
<filter id="filter0_d_198_2966" x="0.8" y="0.4" width="153.8" height="36.9823" filterUnits="userSpaceOnUse" color-interpolation-filters="sRGB">
<feFlood flood-opacity="0" result="BackgroundImageFix"/>
<feColorMatrix in="SourceAlpha" type="matrix" values="0 0 0 0 0 0 0 0 0 0 0 0 0 0 0 0 0 0 127 0" result="hardAlpha"/>
<feOffset dy="1.6"/>
<feGaussianBlur stdDeviation="1.6"/>
<feComposite in2="hardAlpha" operator="out"/>
<feColorMatrix type="matrix" values="0 0 0 0 0 0 0 0 0 0 0 0 0 0 0 0 0 0 0.25 0"/>
<feBlend mode="normal" in2="BackgroundImageFix" result="effect1_dropShadow_198_2966"/>
<feBlend mode="normal" in="SourceGraphic" in2="effect1_dropShadow_198_2966" result="shape"/>
</filter>
<filter id="filter1_d_198_2966" x="68.3517" y="10.4999" width="45.0984" height="22.6824" filterUnits="userSpaceOnUse" color-interpolation-filters="sRGB">
<feFlood flood-opacity="0" result="BackgroundImageFix"/>
<feColorMatrix in="SourceAlpha" type="matrix" values="0 0 0 0 0 0 0 0 0 0 0 0 0 0 0 0 0 0 127 0" result="hardAlpha"/>
<feOffset/>
<feGaussianBlur stdDeviation="0.3"/>
<feComposite in2="hardAlpha" operator="out"/>
<feColorMatrix type="matrix" values="0 0 0 0 0 0 0 0 0 0 0 0 0 0 0 0 0 0 0.25 0"/>
<feBlend mode="normal" in2="BackgroundImageFix" result="effect1_dropShadow_198_2966"/>
<feBlend mode="normal" in="SourceGraphic" in2="effect1_dropShadow_198_2966" result="shape"/>
</filter>
<filter id="filter2_i_198_2966" x="102.258" y="15.6292" width="4.79883" height="6.1564" filterUnits="userSpaceOnUse" color-interpolation-filters="sRGB">
<feFlood flood-opacity="0" result="BackgroundImageFix"/>
<feBlend mode="normal" in="SourceGraphic" in2="BackgroundImageFix" result="shape"/>
<feColorMatrix in="SourceAlpha" type="matrix" values="0 0 0 0 0 0 0 0 0 0 0 0 0 0 0 0 0 0 127 0" result="hardAlpha"/>
<feOffset dy="1.6"/>
<feGaussianBlur stdDeviation="1.6"/>
<feComposite in2="hardAlpha" operator="arithmetic" k2="-1" k3="1"/>
<feColorMatrix type="matrix" values="0 0 0 0 0 0 0 0 0 0 0 0 0 0 0 0 0 0 0.25 0"/>
<feBlend mode="normal" in2="shape" result="effect1_innerShadow_198_2966"/>
</filter>
<filter id="filter3_d_198_2966" x="40.7228" y="11.9" width="18.4256" height="21.1709" filterUnits="userSpaceOnUse" color-interpolation-filters="sRGB">
<feFlood flood-opacity="0" result="BackgroundImageFix"/>
<feColorMatrix in="SourceAlpha" type="matrix" values="0 0 0 0 0 0 0 0 0 0 0 0 0 0 0 0 0 0 127 0" result="hardAlpha"/>
<feOffset/>
<feGaussianBlur stdDeviation="0.3"/>
<feComposite in2="hardAlpha" operator="out"/>
<feColorMatrix type="matrix" values="0 0 0 0 0 0 0 0 0 0 0 0 0 0 0 0 0 0 0.25 0"/>
<feBlend mode="normal" in2="BackgroundImageFix" result="effect1_dropShadow_198_2966"/>
<feBlend mode="normal" in="SourceGraphic" in2="effect1_dropShadow_198_2966" result="shape"/>
</filter>
<filter id="filter4_i_198_2966" x="70.0425" y="15.3999" width="3.55762" height="6.29995" filterUnits="userSpaceOnUse" color-interpolation-filters="sRGB">
<feFlood flood-opacity="0" result="BackgroundImageFix"/>
<feBlend mode="normal" in="SourceGraphic" in2="BackgroundImageFix" result="shape"/>
<feColorMatrix in="SourceAlpha" type="matrix" values="0 0 0 0 0 0 0 0 0 0 0 0 0 0 0 0 0 0 127 0" result="hardAlpha"/>
<feOffset dy="1.6"/>
<feGaussianBlur stdDeviation="1.6"/>
<feComposite in2="hardAlpha" operator="arithmetic" k2="-1" k3="1"/>
<feColorMatrix type="matrix" values="0 0 0 0 0 0 0 0 0 0 0 0 0 0 0 0 0 0 0.25 0"/>
<feBlend mode="normal" in2="shape" result="effect1_innerShadow_198_2966"/>
</filter>
<filter id="filter5_i_198_2966" x="76.6426" y="15.3999" width="3.55762" height="6.29995" filterUnits="userSpaceOnUse" color-interpolation-filters="sRGB">
<feFlood flood-opacity="0" result="BackgroundImageFix"/>
<feBlend mode="normal" in="SourceGraphic" in2="BackgroundImageFix" result="shape"/>
<feColorMatrix in="SourceAlpha" type="matrix" values="0 0 0 0 0 0 0 0 0 0 0 0 0 0 0 0 0 0 127 0" result="hardAlpha"/>
<feOffset dy="1.6"/>
<feGaussianBlur stdDeviation="1.6"/>
<feComposite in2="hardAlpha" operator="arithmetic" k2="-1" k3="1"/>
<feColorMatrix type="matrix" values="0 0 0 0 0 0 0 0 0 0 0 0 0 0 0 0 0 0 0.25 0"/>
<feBlend mode="normal" in2="shape" result="effect1_innerShadow_198_2966"/>
</filter>
</defs>
</svg>
