<svg width="148" height="31" viewBox="0 0 148 31" fill="none" xmlns="http://www.w3.org/2000/svg">
<path d="M24.5753 17.7042L26.253 23.437L15.814 23.4183L13.8566 21.6198C13.0489 25.7039 9.28954 29.1698 6.71084 30.5L0 25.9475C2.98259 23.9803 5.18847 20.9266 4.22534 17.7604L1.11847 7.38145H10.5944L13.6702 17.6855L24.5753 17.7042Z" fill="black"/>
<path d="M16.3732 7.38145H35.3872C42.7505 7.40018 48.6846 10.9785 48.6846 15.4186C48.6846 19.84 42.7816 23.3996 35.4494 23.437L17.6781 23.4183L11.4643 17.6855H18.5791C18.2373 17.1235 18.0509 16.524 18.0509 15.887C18.0509 14.8753 18.548 13.9198 19.3558 13.1142H18.0509L16.3732 7.38145ZM34.7969 17.7042H35.4183C37.4688 17.6855 39.1776 16.6551 39.1776 15.4186C39.1776 14.1821 37.4688 13.133 35.4183 13.1142H34.0202C34.828 13.9198 35.3251 14.8753 35.3251 15.887C35.3251 16.524 35.1387 17.1422 34.7969 17.7042ZM26.688 17.367C28.055 17.367 29.1424 16.7113 29.1424 15.887C29.1424 15.0627 28.055 14.4069 26.688 14.4069C25.321 14.4069 24.2336 15.0627 24.2336 15.887C24.2336 16.7113 25.321 17.367 26.688 17.367Z" fill="black"/>
<path d="M48.2209 0H57.8832L64.8115 23.437H55.1492L48.2209 0Z" fill="black"/>
<path d="M127.205 17.7042L128.883 23.437L118.444 23.4183L116.145 21.3013C113.815 22.6127 110.646 23.4183 107.197 23.437H64.8148L57.7001 17.7042H80.6645L75.4449 0H85.1073L88.1831 10.3603L93.123 7.38145H107.135C114.498 7.40018 120.432 10.9785 120.432 15.4186C120.432 16.2055 120.246 16.9736 119.904 17.7042H127.205ZM90.3268 17.7042H107.166C109.217 17.6855 110.925 16.6551 110.925 15.4186C110.925 14.1821 109.217 13.133 107.166 13.1142H88.9909L90.3268 17.7042Z" fill="black"/>
<path d="M117.947 0H127.609L134.538 23.437H124.875V23.4183H123.632L117.419 17.6855H123.166L117.947 0Z" fill="black"/>
<path d="M130.809 0H140.472L147.4 23.437H137.738L130.809 0Z" fill="black"/>
</svg>
