<svg width="540" height="474" viewBox="0 0 540 474" fill="none" xmlns="http://www.w3.org/2000/svg">
<g filter="url(#filter0_d_768_1778)">
<path d="M234.725 209.841C235.757 212.906 236.342 215.747 236.48 218.363C236.597 220.913 236.389 223.382 235.858 225.772C235.327 228.162 234.562 230.517 233.562 232.837C232.54 235.091 231.418 237.488 230.196 240.028C228.907 242.59 227.574 245.351 226.196 248.311C224.863 251.183 223.608 254.399 222.433 257.959C220.081 264.858 218.286 271.539 217.049 278.001C215.878 284.443 214.964 290.764 214.306 296.964C213.692 303.077 213.235 309.102 212.933 315.039C212.565 320.998 212.074 326.923 211.46 332.814C210.846 338.705 209.898 344.594 208.615 350.48C207.421 356.411 205.647 362.383 203.294 368.395C201.184 373.81 198.562 378.912 195.425 383.699C192.356 388.465 188.85 392.929 184.91 397.091C180.992 401.319 176.683 405.268 171.983 408.937C167.35 412.584 162.471 415.941 157.346 419.009C153.358 421.486 149.704 423.854 146.384 426.114C143.132 428.352 140.325 430.372 137.963 432.173C135.513 433.929 133.508 435.356 131.949 436.454C130.412 437.618 129.342 438.297 128.74 438.493C128.406 438.601 128.082 438.632 127.77 438.586C127.547 438.584 127.379 438.417 127.267 438.084C127.155 437.751 127.199 437.441 127.399 437.154C127.6 436.867 127.911 436.47 128.334 435.963C130.627 433.519 133.221 430.645 136.114 427.34C139.008 424.036 142.002 420.477 145.096 416.664C148.189 412.851 151.294 408.85 154.409 404.661C157.613 400.516 160.662 396.349 163.554 392.158C166.446 387.967 169.104 383.852 171.528 379.812C174.042 375.818 176.176 372.021 177.932 368.421C183.11 358.018 187.152 347.984 190.056 338.319C193.05 328.699 195.376 319.518 197.033 310.775C198.69 302.032 199.935 293.719 200.768 285.835C201.557 278.039 202.347 270.687 203.137 263.778C203.995 256.847 205.054 250.405 206.314 244.452C207.619 238.411 209.628 232.917 212.34 227.971C215.208 222.606 218.401 218.095 221.919 214.441C225.436 210.786 229.369 208.253 233.716 206.842L234.725 209.841Z" fill="black"/>
<path d="M206.363 278.985C205.823 276.499 205.395 273.903 205.078 271.197C204.716 268.579 204.488 265.807 204.393 262.881C204.321 260.022 204.45 256.987 204.778 253.775C205.04 250.586 205.614 247.221 206.5 243.681C207.541 239.5 208.749 235.596 210.126 231.971C211.435 228.368 212.968 224.877 214.724 221.498C216.525 218.031 218.571 214.632 220.862 211.301C223.198 207.882 225.835 204.365 228.773 200.751C225.444 198.135 222.695 195.146 220.525 191.785C218.423 188.402 216.541 184.245 214.882 179.314C214.299 177.581 213.737 175.361 213.197 172.653C212.656 169.946 212.092 166.396 211.504 162.004C210.713 155.904 210.635 150.053 211.272 144.45C211.886 138.781 213.705 133.275 216.729 127.932C219.286 123.628 222.158 120.146 225.343 117.486C228.572 114.738 231.959 112.789 235.504 111.639C238.179 110.771 240.899 110.479 243.666 110.764C246.41 110.982 249.021 111.798 251.5 113.211C253.978 114.624 256.246 116.623 258.303 119.208C260.337 121.726 261.982 124.851 263.238 128.583C263.777 130.183 264.249 132.136 264.654 134.444C265.038 136.685 265.399 139.081 265.738 141.632C266.077 144.183 266.428 146.767 266.789 149.385C267.107 152.09 267.479 154.631 267.907 157.005L268.844 157.144C271.493 153.993 273.818 150.873 275.82 147.784C277.867 144.607 279.501 141.526 280.722 138.543C281.921 135.493 282.652 132.595 282.915 129.848C283.244 127.08 283.017 124.53 282.232 122.198C280.886 118.199 278.67 113.929 275.583 109.387C272.497 104.845 268.675 100.652 264.118 96.8088C257.527 91.1124 251.129 87.2013 244.924 85.0755C238.786 82.9281 232.774 82.8094 226.889 84.7193C219.934 86.9765 215.235 91.5319 212.794 98.3854C210.331 105.172 210.659 114.305 213.781 125.785C214.343 128.115 213.988 129.487 212.718 129.899C211.982 130.138 211.212 129.723 210.407 128.654C209.646 127.496 208.806 125.551 207.887 122.819C206.922 119.953 206.024 116.623 205.192 112.827C204.426 109.01 203.861 105.017 203.497 100.848C203.199 96.6576 203.192 92.4467 203.474 88.2157C203.756 83.9847 204.463 80.0225 205.594 76.3292C206.88 72.2158 208.881 68.5728 211.597 65.4001C214.312 62.2273 217.877 59.9247 222.291 58.4922C225.702 57.3853 229.438 57.1339 233.498 57.7379C237.559 58.342 241.666 59.6333 245.818 61.612C250.015 63.5024 254.147 65.9685 258.212 69.0104C262.277 72.0523 266.075 75.5134 269.607 79.3938C273.183 83.1858 276.335 87.2631 279.064 91.6256C281.861 95.9663 284.021 100.402 285.546 104.934C286.398 107.466 287.24 110.519 288.072 114.093C288.948 117.579 289.736 121.241 290.434 125.08C291.133 128.918 291.697 132.69 292.128 136.394C292.625 140.076 292.888 143.28 292.915 146.006C292.991 151.082 292.341 155.765 290.966 160.055C289.658 164.323 287.836 168.389 285.501 172.251C283.166 176.113 280.384 179.862 277.157 183.496C273.929 187.131 270.467 190.842 266.771 194.628C263.098 198.482 259.268 202.533 255.283 206.783C251.365 211.011 247.436 215.65 243.497 220.698C239.625 225.724 235.855 231.272 232.185 237.342C228.582 243.389 225.293 250.148 222.318 257.619C221.163 260.581 219.975 263.221 218.752 265.539C217.53 267.858 216.329 269.911 215.15 271.698C213.926 273.573 212.691 275.194 211.445 276.559C210.198 277.925 208.951 279.18 207.704 280.323L206.363 278.985ZM256.817 167.035C259.041 163.061 260.473 159.381 261.113 155.994C261.754 152.608 261.716 149.848 260.998 147.716C260.235 145.45 259.116 143.448 257.641 141.709C256.143 139.904 254.401 138.474 252.414 137.418C250.404 136.296 248.206 135.605 245.818 135.345C243.498 135.063 241.101 135.324 238.626 136.127C235.082 137.277 231.94 139.073 229.2 141.514C226.506 143.867 224.28 146.512 222.523 149.447C220.744 152.316 219.478 155.277 218.725 158.33C217.972 161.383 217.776 164.108 218.137 166.504C218.967 168.97 220.22 171.039 221.896 172.713C223.55 174.32 225.515 175.53 227.792 176.344C230.068 177.157 232.567 177.529 235.288 177.459C238.076 177.367 240.975 176.833 243.985 175.856C246.994 174.879 249.435 173.644 251.306 172.15C253.221 170.567 255.058 168.862 256.817 167.035Z" fill="black"/>
<path d="M340.614 219.618C341.177 219.529 341.755 219.535 342.349 219.634C343.006 219.723 343.365 219.954 343.428 220.329C343.48 220.641 343.382 221.009 343.132 221.432C342.945 221.846 342.585 222.191 342.054 222.466C335.919 225.672 330.403 228.748 325.508 231.695C320.601 234.579 316.143 237.457 312.133 240.329C308.113 243.138 304.457 246.019 301.167 248.97C297.865 251.858 294.819 254.931 292.029 258.187C288.051 262.784 284.819 267.423 282.331 272.105C279.833 276.725 277.903 281.288 276.541 285.793C275.241 290.289 274.468 294.67 274.22 298.937C274.035 303.193 274.262 307.225 274.9 311.032C275.977 317.46 277.804 322.81 280.381 327.081C282.968 331.415 286.039 334.808 289.593 337.26C293.159 339.775 297.088 341.399 301.382 342.134C305.686 342.931 310.088 342.976 314.589 342.269C320.591 341.327 326.159 339.331 331.294 336.283C336.492 333.224 341.194 329.507 345.401 325.131C349.608 320.755 353.284 315.886 356.427 310.524C359.581 305.225 362.146 299.858 364.123 294.423C366.109 289.051 367.44 283.782 368.114 278.615C368.861 273.502 368.894 268.917 368.215 264.86C367.639 261.428 366.475 257.735 364.722 253.783C362.969 249.831 360.929 245.699 358.603 241.389C356.266 237.016 353.731 232.418 350.998 227.595C348.275 222.834 345.677 217.862 343.205 212.678C340.732 207.493 338.483 202.114 336.458 196.539C334.433 190.964 332.923 185.212 331.93 179.283C331.009 173.791 330.589 168.028 330.668 161.994C330.81 155.951 331.744 149.463 333.469 142.531C334.166 139.795 335.134 137.529 336.372 135.733C337.663 133.865 339.215 132.789 341.028 132.504L341.685 132.977C342.082 135.349 341.897 138.068 341.127 141.135C340.41 144.131 339.568 147.145 338.601 150.18C338.008 152.002 337.666 153.978 337.573 156.106C337.481 158.234 337.649 160.578 338.078 163.137C338.904 168.067 340.257 172.883 342.135 177.584C344.076 182.275 346.267 186.927 348.709 191.54C351.139 196.09 353.721 200.585 356.454 205.024C359.187 209.462 361.753 213.863 364.153 218.227C366.552 222.59 368.665 226.966 370.491 231.355C372.38 235.734 373.69 240.108 374.423 244.477C374.925 247.472 375.323 250.805 375.617 254.474C375.973 258.133 376.247 262.253 376.437 266.835C377.445 277.822 377.399 287.886 376.3 297.026C375.274 306.219 373.456 314.511 370.845 321.903C368.235 329.295 364.998 335.825 361.136 341.491C357.273 347.158 353.046 351.986 348.453 355.974C343.86 359.962 339.033 363.123 333.97 365.455C328.918 367.85 323.953 369.43 319.077 370.196C312.138 371.286 305.719 370.885 299.82 368.994C293.994 367.155 288.839 364.153 284.356 359.989C279.873 355.825 276.123 350.681 273.108 344.557C270.093 338.434 267.963 331.658 266.718 324.231C266.425 322.484 266.122 320.29 265.807 317.649C265.504 315.07 265.366 312.145 265.396 308.874C265.435 305.665 265.683 302.167 266.139 298.38C266.595 294.594 267.473 290.645 268.773 286.533C270.063 282.359 271.816 278.08 274.032 273.697C276.249 269.313 279.102 264.894 282.589 260.439C287.41 254.365 292.435 249.124 297.663 244.716C302.953 240.298 308.156 236.502 313.27 233.329C318.374 230.093 323.28 227.401 327.989 225.252C332.697 223.103 336.906 221.225 340.614 219.618Z" fill="black"/>
<path d="M417.275 277.362C417.171 277.891 417.005 278.43 416.776 278.978C416.547 279.527 416.277 279.825 415.964 279.874C415.776 279.904 415.61 279.674 415.463 279.184C415.38 278.685 415.296 278.186 415.212 277.686C415.024 276.563 414.877 273.96 414.77 269.877C414.663 265.795 414.055 260.446 412.947 253.83C411.043 242.471 408.791 231.712 406.189 221.551C403.641 211.319 400.811 201.899 397.7 193.292C394.579 184.623 391.193 176.86 387.541 170.003C383.89 163.146 380.015 157.446 375.917 152.901C371.809 148.294 367.524 144.931 363.063 142.814C358.529 140.644 353.886 139.932 349.135 140.678C346.572 141.081 344.405 142.126 342.635 143.813C340.854 145.438 339.522 147.633 338.638 150.398C337.785 152.966 337.036 155.005 336.391 156.515C335.683 158.036 334.955 159.431 334.205 160.702L333.424 160.633L333.047 158.386C332.775 156.763 332.602 154.58 332.527 151.838C332.39 149.105 332.716 146.075 333.506 142.749C334.379 139.153 335.539 135.928 336.985 133.074C338.37 130.231 339.947 127.773 341.717 125.702C343.424 123.64 345.268 122.005 347.247 120.798C349.163 119.6 351.122 118.844 353.122 118.53C357.936 117.773 362.688 118.564 367.379 120.902C372.059 123.178 376.568 126.729 380.905 131.556C385.233 136.321 389.326 142.179 393.186 149.131C397.098 156.011 400.698 163.709 403.986 172.224C407.263 180.677 410.197 189.76 412.787 199.473C415.367 209.125 417.52 219.099 419.246 229.397C420.626 237.635 421.454 244.103 421.728 248.8C422.064 253.487 421.952 257.027 421.39 259.422C420.798 262.397 420.128 265.481 419.38 268.673C418.694 271.855 417.993 274.752 417.275 277.362Z" fill="black"/>
<path d="M209.046 234.974C210.062 231.778 210.48 230.746 211.156 229.075C212.25 226.373 212.589 225.307 215.348 220.319C220.984 229.065 226.887 235.477 231.315 244.635C235.797 253.785 241.469 262.36 244.993 272.104C248.462 281.855 252.05 290.952 255.756 299.393C259.508 307.771 263.211 315.134 266.865 321.48L266.313 328.541C265.071 328.736 263.648 328.489 262.045 327.8C260.434 327.057 258.614 325.516 256.586 323.177C254.549 320.784 252.333 317.424 249.937 313.095C247.586 308.703 245.073 302.925 242.398 295.761C239.283 287.56 235.293 278.72 230.427 269.243C225.562 259.766 215.695 245.942 209.046 234.974Z" fill="#F6D000"/>
<path d="M240.613 272.768C242.531 274.404 244.08 275.987 245.262 277.518C246.435 278.994 247.294 280.41 247.839 281.763C248.111 282.44 248.559 283.532 249.184 285.04C249.808 286.547 250.551 288.285 251.414 290.253C252.277 292.221 253.219 294.342 254.241 296.618C255.262 298.893 256.307 301.137 257.374 303.35C259.454 307.784 261.56 311.494 263.69 314.481C265.882 317.514 268.189 319.864 270.61 321.532C273.039 323.254 275.704 324.358 278.603 324.843C281.503 325.329 284.789 325.283 288.463 324.706C292.893 324.01 297.626 322.603 302.663 320.483C307.7 318.363 312.763 315.353 317.852 311.454C323.004 307.6 328.062 302.792 333.025 297.03C338.042 291.26 342.749 284.404 347.148 276.461C348.657 273.733 349.669 271.359 350.182 269.341C350.749 267.315 350.986 266.004 350.893 265.41C350.74 264.437 350.292 263.345 349.548 262.134C348.804 260.922 347.717 259.819 346.288 258.826C344.913 257.824 343.216 257.066 341.198 256.553C339.18 256.04 336.847 255.991 334.2 256.407C331.823 256.78 329.586 257.519 327.49 258.623C325.439 259.665 323.516 260.991 321.721 262.602C319.926 264.212 318.223 266.058 316.612 268.137C315.055 270.209 313.578 272.434 312.18 274.812C310.261 278.103 308.588 281.549 307.161 285.15C305.779 288.688 304.549 292.314 303.472 296.026C302.394 299.738 301.456 303.456 300.657 307.18C299.912 310.895 299.266 314.539 298.72 318.113L298.311 318.675L293.345 310.321C293.234 309.619 293.309 308.334 293.57 306.466C293.776 304.607 293.993 302.469 294.223 300.053C294.452 297.636 294.611 295.12 294.698 292.505C294.839 289.881 294.736 287.461 294.388 285.246C293.964 282.545 293.266 279.333 292.293 275.611C291.367 271.826 290.23 267.936 288.883 263.94C287.589 259.936 286.138 255.985 284.529 252.085C282.974 248.178 281.379 244.719 279.744 241.71C278.101 238.647 276.446 236.222 274.782 234.435C273.171 232.64 271.664 231.852 270.259 232.073C268.638 232.328 267.641 233.73 267.266 236.28C266.937 238.767 266.828 242.3 266.938 246.877C266.974 247.812 266.882 248.463 266.663 248.83C266.436 249.143 266.16 249.324 265.835 249.375C264.863 249.528 264.216 248.578 263.893 246.525C263.681 245.174 263.463 243.437 263.241 241.313C263.063 239.127 262.95 236.819 262.901 234.391C262.843 231.909 262.893 229.41 263.052 226.894C263.21 224.378 263.537 222.057 264.034 219.931C264.793 216.656 265.653 214.03 266.616 212.052C267.624 210.012 268.938 208.864 270.559 208.609C272.666 208.278 274.732 208.923 276.758 210.542C278.776 212.107 280.793 214.198 282.809 216.816C285.385 220.175 287.557 223.958 289.325 228.165C291.084 232.317 292.572 236.678 293.788 241.248C295.049 245.755 296.095 250.296 296.924 254.872C297.745 259.393 298.474 263.679 299.11 267.731C299.416 269.676 299.615 271.472 299.707 273.118C299.754 274.826 299.82 276.477 299.904 278.069L300.603 278.291C302.061 272.416 303.881 267.092 306.066 262.321C308.242 257.495 310.713 253.315 313.479 249.78C316.246 246.245 319.316 243.411 322.689 241.275C326.054 239.086 329.655 237.69 333.49 237.087C336.786 236.57 339.711 236.692 342.267 237.453C344.822 238.214 346.982 239.452 348.746 241.168C350.556 242.821 352.011 244.862 353.112 247.291C354.205 249.666 354.972 252.258 355.413 255.068C355.736 257.12 355.778 259.328 355.54 261.691C355.248 264.061 355.02 266.312 354.857 268.441C354.523 273.365 354.077 277.753 353.52 281.605C353.016 285.448 352.296 288.966 351.358 292.158C350.482 295.395 349.33 298.455 347.9 301.337C346.525 304.21 344.821 307.107 342.789 310.028C334.771 321.363 326.516 330.133 318.024 336.338C309.533 342.543 301.154 346.295 292.888 347.594C288.837 348.23 284.934 348.234 281.182 347.606C277.484 346.969 273.949 345.614 270.579 343.541C267.272 341.515 264.142 338.685 261.191 335.052C258.249 331.473 255.499 327.005 252.941 321.65C251.284 318.146 249.699 314.575 248.186 310.938C246.682 307.354 245.352 303.993 244.194 300.853C243.037 297.713 242.078 294.958 241.318 292.586C240.558 290.214 240.097 288.515 239.936 287.489C239.537 284.949 239.309 282.439 239.251 279.957C239.193 277.475 239.323 275.129 239.641 272.92L240.613 272.768Z" fill="#F6D000"/>
<path fill-rule="evenodd" clip-rule="evenodd" d="M301.381 342.12C303.424 342.499 305.49 342.708 307.578 342.747C302.642 345.205 297.745 346.816 292.887 347.579C288.835 348.215 284.933 348.219 281.18 347.591C278.488 347.127 275.882 346.283 273.364 345.058C273.278 344.888 273.192 344.716 273.107 344.544C270.092 338.42 267.962 331.644 266.717 324.217C266.424 322.47 266.121 320.276 265.807 317.635C265.785 317.449 265.764 317.261 265.743 317.071C267.31 318.88 268.932 320.362 270.608 321.517C273.037 323.239 275.702 324.343 278.601 324.829C278.797 324.861 278.994 324.892 279.193 324.92C279.569 325.664 279.965 326.38 280.38 327.068C282.967 331.401 286.038 334.794 289.593 337.246C293.158 339.761 297.087 341.385 301.381 342.12Z" fill="black"/>
</g>
<defs>
<filter id="filter0_d_768_1778" x="123.207" y="57.418" width="302.709" height="389.189" filterUnits="userSpaceOnUse" color-interpolation-filters="sRGB">
<feFlood flood-opacity="0" result="BackgroundImageFix"/>
<feColorMatrix in="SourceAlpha" type="matrix" values="0 0 0 0 0 0 0 0 0 0 0 0 0 0 0 0 0 0 127 0" result="hardAlpha"/>
<feOffset dy="4"/>
<feGaussianBlur stdDeviation="2"/>
<feComposite in2="hardAlpha" operator="out"/>
<feColorMatrix type="matrix" values="0 0 0 0 0.964706 0 0 0 0 0.815686 0 0 0 0 0 0 0 0 0.25 0"/>
<feBlend mode="normal" in2="BackgroundImageFix" result="effect1_dropShadow_768_1778"/>
<feBlend mode="normal" in="SourceGraphic" in2="effect1_dropShadow_768_1778" result="shape"/>
</filter>
</defs>
</svg>
