<svg width="240" height="51" viewBox="0 0 240 51" fill="none" xmlns="http://www.w3.org/2000/svg">
<path d="M40.2191 29.4496L42.9454 38.7654L25.9819 38.7349L22.8012 35.8123C21.4886 42.4491 15.3797 48.0812 11.1893 50.2427L0.28418 42.8448C5.1309 39.6482 8.71545 34.6859 7.15036 29.5409L2.1017 12.675H17.5001L22.4983 29.4191L40.2191 29.4496Z" fill="black"/>
<path d="M26.8906 12.675H57.7884C69.7538 12.7055 79.3967 18.5202 79.3967 25.7354C79.3967 32.9202 69.8043 38.7045 57.8894 38.7654L29.0111 38.7349L18.9137 29.4191H30.4752C29.9198 28.5058 29.6169 27.5316 29.6169 26.4965C29.6169 24.8525 30.4247 23.2999 31.7373 21.9908H29.6169L26.8906 12.675ZM56.8292 29.4496H57.8389C61.171 29.4191 63.9478 27.7447 63.9478 25.7354C63.9478 23.7261 61.171 22.0213 57.8389 21.9908H55.567C56.8797 23.2999 57.6875 24.8525 57.6875 26.4965C57.6875 27.5316 57.3845 28.5362 56.8292 29.4496ZM43.6522 28.9016C45.8736 28.9016 47.6406 27.836 47.6406 26.4965C47.6406 25.157 45.8736 24.0915 43.6522 24.0915C41.4308 24.0915 39.6637 25.157 39.6637 26.4965C39.6637 27.836 41.4308 28.9016 43.6522 28.9016Z" fill="black"/>
<path d="M78.6431 0.680176H94.3444L105.603 38.7654H89.9016L78.6431 0.680176Z" fill="black"/>
<path d="M206.993 29.4496L209.719 38.7654L192.756 38.7349L189.02 35.2948C185.233 37.4258 180.083 38.7349 174.479 38.7654H105.608L94.0469 29.4496H131.364L122.882 0.680176H138.583L143.582 17.5156L151.609 12.675H174.379C186.344 12.7055 195.987 18.5202 195.987 25.7354C195.987 27.0141 195.684 28.2623 195.128 29.4496H206.993ZM147.065 29.4496H174.429C177.761 29.4191 180.538 27.7447 180.538 25.7354C180.538 23.7261 177.761 22.0213 174.429 21.9908H144.894L147.065 29.4496Z" fill="black"/>
<path d="M191.948 0.680176H207.649L218.908 38.7654H203.206V38.7349H201.187L191.09 29.4191H200.43L191.948 0.680176Z" fill="black"/>
<path d="M212.849 0.680176H228.551L239.809 38.7654H224.108L212.849 0.680176Z" fill="black"/>
</svg>
