<svg width="250" height="61" viewBox="0 0 250 61" fill="none" xmlns="http://www.w3.org/2000/svg">
<g filter="url(#filter0_d_198_2991)">
<path d="M237.217 8.56109C237.254 8.05126 237.678 7.65649 238.19 7.65649L243.78 7.65649C244.339 7.65649 244.784 8.12603 244.753 8.68452L243.206 37.0978C243.179 37.5968 242.778 37.9944 242.279 38.0187L236.158 38.3157C235.574 38.3441 235.096 37.855 235.139 37.2715L237.217 8.56109Z" fill="black"/>
<path d="M147.842 11.1612C147.879 10.6514 148.303 10.2566 148.815 10.2566L154.405 10.2566C154.964 10.2566 155.409 10.7261 155.378 11.2846L153.831 39.6979C153.804 40.1969 153.403 40.5945 152.904 40.6188L146.783 40.9158C146.199 40.9442 145.721 40.4551 145.764 39.8716L147.842 11.1612Z" fill="black"/>
<path d="M161.102 4.91684C161.113 4.3936 161.535 3.97248 162.058 3.96275L229.939 2.69984C230.509 2.68925 230.966 3.16701 230.931 3.73549L230.565 9.58086C230.533 10.0886 230.117 10.4866 229.608 10.4949L161.971 11.6011C161.418 11.6102 160.969 11.1582 160.981 10.6055L161.102 4.91684Z" fill="black"/>
<path d="M222.059 9.19343C222.059 8.80918 222.285 8.46076 222.635 8.30365L229.395 5.27493C230.057 4.9787 230.798 5.48155 230.768 6.20543L230.172 20.4722L229.178 32.3825C228.565 36.6766 227.151 38.3372 223.007 38.4265C222.48 38.4379 222.059 38.002 222.059 37.4747V9.19343Z" fill="black"/>
<path d="M161.447 33.2302L179.484 32.0927L224.334 31.1177L223.359 38.4302L178.834 39.4052H162.422L161.447 33.2302Z" fill="black"/>
<path d="M192.809 17.7626C192.809 17.236 193.227 16.8045 193.754 16.7881L208.409 16.3301C213.376 16.3301 214.858 20.6522 214.92 24.1306C214.929 24.6014 214.57 24.9888 214.104 25.0524L208.467 25.821C208.046 25.8785 207.653 25.6418 207.39 25.3076C206.864 24.6396 206.009 24.2468 204.347 24.2926H193.784C193.246 24.2926 192.809 23.8561 192.809 23.3176V17.7626Z" fill="black"/>
<path d="M208.247 31.7675C208.247 31.7675 208.409 26.8925 207.109 25.105C205.809 23.3175 213.772 16.397 214.747 22.0175C215.722 27.6379 215.874 28.3994 215.874 31.4505C215.874 34.5016 216.859 38.5925 216.859 38.5925L193.297 39.08L193.134 31.93L208.247 31.7675Z" fill="black"/>
<path d="M32.8847 27.27C32.9004 27.0271 33.0063 26.7989 33.1817 26.6302L39.7644 20.2959C40.3987 19.6855 41.4531 20.1618 41.4145 21.0412L40.9163 32.3747C40.8919 32.9294 41.3351 33.3925 41.8904 33.3925H75.9716C76.5101 33.3925 76.9466 33.829 76.9466 34.3675V40.3962C76.9466 40.9283 76.5199 41.3621 75.9879 41.371L38.1091 42.005H32.974C32.4108 42.005 31.9648 41.5292 32.001 40.9672L32.8847 27.27Z" fill="black"/>
<path d="M51.7593 19.7128C51.7593 19.1862 52.1775 18.7547 52.7038 18.7383L67.3593 18.2803C72.3264 18.2803 73.808 22.6024 73.8703 26.0808C73.8788 26.5516 73.5204 26.939 73.0539 27.0026L67.4173 27.7712C66.9958 27.8287 66.6032 27.592 66.3401 27.2578C65.8142 26.5898 64.9595 26.197 63.2968 26.2428H52.7343C52.1958 26.2428 51.7593 25.8063 51.7593 25.2678V19.7128Z" fill="black"/>
<path d="M67.1965 33.7177C67.1965 33.7177 67.359 28.8427 66.059 27.0552C64.759 25.2677 72.7216 18.3472 73.6965 23.9677C74.6714 29.5881 74.8238 30.3496 74.8238 33.4007C74.8238 36.4518 75.809 40.5427 75.809 40.5427L52.2465 41.0302L52.084 33.8802L67.1965 33.7177Z" fill="black"/>
<path d="M200.741 45.6901C200.758 45.1726 201.177 44.7589 201.695 44.7478L207.373 44.627C207.935 44.6151 208.39 45.0793 208.368 45.6408L208.247 48.6675L207.878 51.1245C207.809 51.5853 207.424 51.9327 206.958 51.9539L201.629 52.1961C201.073 52.2214 200.609 51.778 200.609 51.2222V49.6425L200.741 45.6901Z" fill="black"/>
<path d="M56.4408 45.6901C56.4581 45.1726 56.8769 44.7589 57.3945 44.7478L63.0727 44.627C63.6345 44.6151 64.0901 45.0793 64.0676 45.6408L63.9466 48.6675L63.578 51.1245C63.5089 51.5853 63.1235 51.9327 62.6581 51.9539L57.3284 52.1961C56.7731 52.2214 56.3091 51.778 56.3091 51.2222V49.6425L56.4408 45.6901Z" fill="black"/>
<g filter="url(#filter1_d_198_2991)">
<path d="M182 18.7865L180.784 33.5274L180.298 40.9811C180.297 40.9953 180.297 41.009 180.296 41.0233C180.284 41.4616 180.05 48.6943 177.372 50.4274C174.816 52.0809 120.118 52.2049 111.931 52.2142C111.36 52.2148 110.95 51.7274 110.997 51.159L111.486 45.2946C111.527 44.7953 111.941 44.4088 112.442 44.4007L141.784 43.9275L172.334 43.4679V39.5679C172.334 39.5679 160.472 41.0304 158.847 37.7804C157.222 34.5304 158.522 20.5275 160.959 18.5774C162.505 17.3406 177.066 17.6318 181.07 17.7362C181.627 17.7507 182.046 18.2308 182 18.7865Z" fill="black"/>
<path d="M182 18.7865L180.784 33.5274L180.298 40.9811C180.297 40.9953 180.297 41.009 180.296 41.0233C180.284 41.4616 180.05 48.6943 177.372 50.4274C174.816 52.0809 120.118 52.2049 111.931 52.2142C111.36 52.2148 110.95 51.7274 110.997 51.159L111.486 45.2946C111.527 44.7953 111.941 44.4088 112.442 44.4007L141.784 43.9275L172.334 43.4679V39.5679C172.334 39.5679 160.472 41.0304 158.847 37.7804C157.222 34.5304 158.522 20.5275 160.959 18.5774C162.505 17.3406 177.066 17.6318 181.07 17.7362C181.627 17.7507 182.046 18.2308 182 18.7865Z" stroke="black" stroke-width="0.325"/>
</g>
<g filter="url(#filter2_i_198_2991)">
<path d="M165.432 25.9532C165.476 25.4675 165.873 25.0891 166.36 25.0675L171.733 24.8287C172.314 24.8028 172.788 25.2876 172.749 25.8676L172.394 31.2023C172.36 31.7063 171.947 32.1012 171.442 32.1122L165.95 32.2316C165.369 32.2442 164.905 31.7479 164.958 31.1685L165.432 25.9532Z" fill="#FFD700"/>
</g>
<path d="M91.2466 36.6426L92.2216 34.6926L136.422 34.2051V40.8676L91.5716 42.0051L91.2466 39.5676V36.6426Z" fill="black"/>
<g filter="url(#filter3_d_198_2991)">
<path d="M93.7596 20.9604L92.5466 35.6678L92.0606 42.6339C92.0596 42.6481 92.0589 42.6615 92.0585 42.6758C92.0455 43.0702 91.805 49.052 89.1341 50.7803C86.736 52.332 71.1123 52.0468 67.0324 51.9446C66.4916 51.9311 66.076 51.4777 66.0968 50.9372L66.348 44.4053C66.3682 43.8818 66.7984 43.4678 67.3223 43.4678H83.7716L86.3716 19.9053H92.7879C93.3579 19.9053 93.8064 20.3923 93.7596 20.9604Z" fill="black"/>
<path d="M93.7596 20.9604L92.5466 35.6678L92.0606 42.6339C92.0596 42.6481 92.0589 42.6615 92.0585 42.6758C92.0455 43.0702 91.805 49.052 89.1341 50.7803C86.736 52.332 71.1123 52.0468 67.0324 51.9446C66.4916 51.9311 66.076 51.4777 66.0968 50.9372L66.348 44.4053C66.3682 43.8818 66.7984 43.4678 67.3223 43.4678H83.7716L86.3716 19.9053H92.7879C93.3579 19.9053 93.8064 20.3923 93.7596 20.9604Z" stroke="black" stroke-width="0.325"/>
</g>
<path d="M105.636 18.8411C105.678 18.3392 106.094 17.9515 106.598 17.9465L134.5 17.6689C136.586 17.6481 138.247 19.4115 138.102 21.4931L136.747 40.8679L104.839 41.4966C104.262 41.508 103.801 41.0172 103.848 40.4414L105.636 18.8411Z" fill="black"/>
<rect width="16.575" height="7.6375" transform="translate(112.534 24.4556)" fill="black"/>
<g filter="url(#filter4_i_198_2991)">
<path d="M112.893 25.9398C112.966 25.1001 113.669 24.4556 114.512 24.4556H115.459H116.759C117.657 24.4556 118.384 25.1831 118.384 26.0806V28.0586C118.384 28.1481 118.377 28.2374 118.362 28.3257L117.96 30.7352C117.83 31.5188 117.152 32.0931 116.358 32.0931H115.134H114.228C113.304 32.0931 112.566 31.3236 112.605 30.4004L112.697 28.1931L112.893 25.9398Z" fill="#FFD700"/>
</g>
<g filter="url(#filter5_i_198_2991)">
<path d="M123.618 25.9398C123.691 25.1001 124.394 24.4556 125.237 24.4556H126.184H127.484C128.382 24.4556 129.109 25.1831 129.109 26.0806V28.0586C129.109 28.1481 129.102 28.2374 129.087 28.3257L128.686 30.7352C128.555 31.5188 127.877 32.0931 127.083 32.0931H125.859H124.953C124.029 32.0931 123.291 31.3236 123.33 30.4004L123.422 28.1931L123.618 25.9398Z" fill="#FFD700"/>
</g>
<path d="M29.2441 27.0357L35.6717 26.8929L39.9111 27.1578C40.4436 27.1911 40.904 26.7902 40.9441 26.2581L41.4385 19.7073C41.4827 19.1223 41.0039 18.631 40.418 18.6601L24.8042 19.4343C23.0942 19.5191 21.6843 20.8044 21.4422 22.4994L19.8663 33.5308C19.7976 34.0111 19.3863 34.3679 18.9011 34.3679H14.4594C13.8924 34.3679 13.445 33.886 13.4871 33.3205L14.8059 15.5899C14.8432 15.0885 15.2557 14.6976 15.7585 14.6875L142.696 12.1231C143.194 12.113 143.604 11.729 143.648 11.2327L144.128 5.71162C144.178 5.13412 143.716 4.64061 143.137 4.65236L8.77183 7.37489C8.26873 7.38508 7.85603 7.77646 7.81919 8.27832L5.57212 38.8947C5.41774 40.9981 7.10839 42.7773 9.21695 42.7305L26.3368 42.35C26.8387 42.3389 27.2501 41.9484 27.2874 41.4477L28.2934 27.9381C28.3307 27.4374 28.7421 27.0469 29.2441 27.0357Z" fill="black" stroke="black" stroke-width="0.325"/>
</g>
<defs>
<filter id="filter0_d_198_2991" x="0.0841799" y="0.0801759" width="249.925" height="60.0963" filterUnits="userSpaceOnUse" color-interpolation-filters="sRGB">
<feFlood flood-opacity="0" result="BackgroundImageFix"/>
<feColorMatrix in="SourceAlpha" type="matrix" values="0 0 0 0 0 0 0 0 0 0 0 0 0 0 0 0 0 0 127 0" result="hardAlpha"/>
<feOffset dy="2.6"/>
<feGaussianBlur stdDeviation="2.6"/>
<feComposite in2="hardAlpha" operator="out"/>
<feColorMatrix type="matrix" values="0 0 0 0 0 0 0 0 0 0 0 0 0 0 0 0 0 0 0.25 0"/>
<feBlend mode="normal" in2="BackgroundImageFix" result="effect1_dropShadow_198_2991"/>
<feBlend mode="normal" in="SourceGraphic" in2="effect1_dropShadow_198_2991" result="shape"/>
</filter>
<filter id="filter1_d_198_2991" x="109.856" y="16.4928" width="73.285" height="36.8587" filterUnits="userSpaceOnUse" color-interpolation-filters="sRGB">
<feFlood flood-opacity="0" result="BackgroundImageFix"/>
<feColorMatrix in="SourceAlpha" type="matrix" values="0 0 0 0 0 0 0 0 0 0 0 0 0 0 0 0 0 0 127 0" result="hardAlpha"/>
<feOffset/>
<feGaussianBlur stdDeviation="0.4875"/>
<feComposite in2="hardAlpha" operator="out"/>
<feColorMatrix type="matrix" values="0 0 0 0 0 0 0 0 0 0 0 0 0 0 0 0 0 0 0.25 0"/>
<feBlend mode="normal" in2="BackgroundImageFix" result="effect1_dropShadow_198_2991"/>
<feBlend mode="normal" in="SourceGraphic" in2="effect1_dropShadow_198_2991" result="shape"/>
</filter>
<filter id="filter2_i_198_2991" x="164.954" y="24.8276" width="7.79736" height="10.0043" filterUnits="userSpaceOnUse" color-interpolation-filters="sRGB">
<feFlood flood-opacity="0" result="BackgroundImageFix"/>
<feBlend mode="normal" in="SourceGraphic" in2="BackgroundImageFix" result="shape"/>
<feColorMatrix in="SourceAlpha" type="matrix" values="0 0 0 0 0 0 0 0 0 0 0 0 0 0 0 0 0 0 127 0" result="hardAlpha"/>
<feOffset dy="2.6"/>
<feGaussianBlur stdDeviation="2.6"/>
<feComposite in2="hardAlpha" operator="arithmetic" k2="-1" k3="1"/>
<feColorMatrix type="matrix" values="0 0 0 0 0 0 0 0 0 0 0 0 0 0 0 0 0 0 0.25 0"/>
<feBlend mode="normal" in2="shape" result="effect1_innerShadow_198_2991"/>
</filter>
<filter id="filter3_d_198_2991" x="64.9586" y="18.7677" width="29.9417" height="34.4026" filterUnits="userSpaceOnUse" color-interpolation-filters="sRGB">
<feFlood flood-opacity="0" result="BackgroundImageFix"/>
<feColorMatrix in="SourceAlpha" type="matrix" values="0 0 0 0 0 0 0 0 0 0 0 0 0 0 0 0 0 0 127 0" result="hardAlpha"/>
<feOffset/>
<feGaussianBlur stdDeviation="0.4875"/>
<feComposite in2="hardAlpha" operator="out"/>
<feColorMatrix type="matrix" values="0 0 0 0 0 0 0 0 0 0 0 0 0 0 0 0 0 0 0.25 0"/>
<feBlend mode="normal" in2="BackgroundImageFix" result="effect1_dropShadow_198_2991"/>
<feBlend mode="normal" in="SourceGraphic" in2="effect1_dropShadow_198_2991" result="shape"/>
</filter>
<filter id="filter4_i_198_2991" x="112.603" y="24.4556" width="5.78125" height="10.2377" filterUnits="userSpaceOnUse" color-interpolation-filters="sRGB">
<feFlood flood-opacity="0" result="BackgroundImageFix"/>
<feBlend mode="normal" in="SourceGraphic" in2="BackgroundImageFix" result="shape"/>
<feColorMatrix in="SourceAlpha" type="matrix" values="0 0 0 0 0 0 0 0 0 0 0 0 0 0 0 0 0 0 127 0" result="hardAlpha"/>
<feOffset dy="2.6"/>
<feGaussianBlur stdDeviation="2.6"/>
<feComposite in2="hardAlpha" operator="arithmetic" k2="-1" k3="1"/>
<feColorMatrix type="matrix" values="0 0 0 0 0 0 0 0 0 0 0 0 0 0 0 0 0 0 0.25 0"/>
<feBlend mode="normal" in2="shape" result="effect1_innerShadow_198_2991"/>
</filter>
<filter id="filter5_i_198_2991" x="123.328" y="24.4556" width="5.78125" height="10.2377" filterUnits="userSpaceOnUse" color-interpolation-filters="sRGB">
<feFlood flood-opacity="0" result="BackgroundImageFix"/>
<feBlend mode="normal" in="SourceGraphic" in2="BackgroundImageFix" result="shape"/>
<feColorMatrix in="SourceAlpha" type="matrix" values="0 0 0 0 0 0 0 0 0 0 0 0 0 0 0 0 0 0 127 0" result="hardAlpha"/>
<feOffset dy="2.6"/>
<feGaussianBlur stdDeviation="2.6"/>
<feComposite in2="hardAlpha" operator="arithmetic" k2="-1" k3="1"/>
<feColorMatrix type="matrix" values="0 0 0 0 0 0 0 0 0 0 0 0 0 0 0 0 0 0 0.25 0"/>
<feBlend mode="normal" in2="shape" result="effect1_innerShadow_198_2991"/>
</filter>
</defs>
</svg>
