<svg width="30" height="31" viewBox="0 0 30 31" fill="none" xmlns="http://www.w3.org/2000/svg">
<path d="M13.75 19H16.25V21.5H13.75M13.75 9H16.25V16.5H13.75M15 27.75C16.6415 27.75 18.267 27.4267 19.7835 26.7985C21.3001 26.1703 22.6781 25.2496 23.8388 24.0888C26.183 21.7446 27.5 18.5652 27.5 15.25C27.5 11.9348 26.183 8.75537 23.8388 6.41117C22.6781 5.25043 21.3001 4.32969 19.7835 3.7015C18.267 3.07332 16.6415 2.75 15 2.75C11.6848 2.75 8.50537 4.06696 6.16117 6.41117C3.81696 8.75537 2.5 11.9348 2.5 15.25C2.5 16.8915 2.82332 18.517 3.4515 20.0335C4.07969 21.5501 5.00043 22.9281 6.16117 24.0888C7.3219 25.2496 8.69989 26.1703 10.2165 26.7985C11.733 27.4267 13.3585 27.75 15 27.75Z" fill="black"/>
</svg>
