<svg width="15" height="15" viewBox="0 0 15 15" fill="none" xmlns="http://www.w3.org/2000/svg">
    <path fill-rule="evenodd" clip-rule="evenodd" d="M3.41844 5.00009C3.65877 4.99805 3.8909 5.08741 4.06781 5.25009L6.88031 7.90446L9.68781 5.25321C10.0542 4.9156 10.6183 4.9156 10.9847 5.25321C11.1561 5.41086 11.2537 5.63312 11.2537 5.86603C11.2537 6.09893 11.1561 6.32119 10.9847 6.47884L7.52531 9.74571C7.16007 10.085 6.59494 10.085 6.22969 9.74571L2.77156 6.47884C2.59977 6.32139 2.50195 6.09906 2.50195 5.86603C2.50195 5.63299 2.59977 5.41066 2.77156 5.25321C2.94717 5.08967 3.17848 4.99916 3.41844 5.00009" fill="#42526E" fill-opacity="0.81"/>
</svg>
