<svg width="8" height="14" viewBox="0 0 8 14" fill="none" xmlns="http://www.w3.org/2000/svg">
<path fill-rule="evenodd" clip-rule="evenodd" d="M8.0001 12.5341C8.00322 12.1493 7.86028 11.7776 7.6001 11.4941L3.3481 7.00011L7.5951 2.50611C8.13529 1.91991 8.13529 1.0173 7.5951 0.431109C7.34318 0.156237 6.98745 -0.000269978 6.6146 -0.000270011C6.24175 -0.000270044 5.88602 0.156236 5.6341 0.431109L0.407102 5.96311C-0.135586 6.54717 -0.135586 7.45105 0.407102 8.03511L5.6341 13.5691C5.88602 13.844 6.24175 14.0005 6.6146 14.0005C6.98745 14.0005 7.34318 13.844 7.5951 13.5691C7.85678 13.2881 8.0016 12.9181 8.0001 12.5341Z" fill="#C1C7D0"/>
</svg>
