<svg width="27" height="28" viewBox="0 0 27 28" fill="none" xmlns="http://www.w3.org/2000/svg">
<path d="M24.1691 20.1795C25.8971 18.1469 26.9289 15.5893 26.9289 12.809C26.9289 6.19082 21.093 0.830078 13.8941 0.830078C6.69531 0.830078 0.859375 6.19082 0.859375 12.809C0.859375 19.4271 6.69531 24.7873 13.8941 24.7873C15.4791 24.7898 17.0529 24.5235 18.5488 23.9998C18.6338 23.9708 18.7257 23.9697 18.8113 23.9967C18.8969 24.0237 18.9717 24.0773 19.0246 24.1498C20.1133 25.6199 21.8143 26.6541 23.7057 27.0748C23.7729 27.0887 23.8428 27.0753 23.9002 27.0376C23.9575 26.9999 23.9976 26.941 24.0115 26.8738C24.0193 26.837 24.0189 26.7989 24.0103 26.7622C24.0017 26.7255 23.9851 26.6912 23.9617 26.6617C23.2388 25.7238 22.8651 24.5635 22.9045 23.38C22.944 22.1965 23.3942 21.0637 24.1779 20.176L24.1691 20.1795ZM20.077 11.4004L16.7195 13.9486L17.9371 17.9834C17.9601 18.0592 17.959 18.1402 17.9338 18.2153C17.9086 18.2904 17.8606 18.3558 17.7965 18.4023C17.7325 18.4489 17.6555 18.4743 17.5763 18.475C17.4971 18.4757 17.4196 18.4518 17.3547 18.4064L13.8941 16.0012L10.4336 18.4082C10.3686 18.4534 10.2912 18.4772 10.212 18.4764C10.1329 18.4756 10.0559 18.4502 9.99185 18.4037C9.92779 18.3572 9.87977 18.292 9.85446 18.217C9.82915 18.142 9.82779 18.061 9.85059 17.9852L11.0688 13.9504L7.71133 11.4021C7.64823 11.3544 7.6016 11.2881 7.57791 11.2126C7.55421 11.137 7.55464 11.056 7.57913 10.9807C7.60362 10.9055 7.65095 10.8397 7.71455 10.7926C7.77814 10.7454 7.85484 10.7193 7.93398 10.7178L12.1457 10.6293L13.532 6.64961C13.558 6.57488 13.6066 6.51008 13.6711 6.46423C13.7355 6.41838 13.8127 6.39374 13.8918 6.39374C13.9709 6.39374 14.0481 6.41838 14.1125 6.46423C14.177 6.51008 14.2256 6.57488 14.2516 6.64961L15.6379 10.6293L19.8496 10.7178C19.9291 10.7183 20.0065 10.7438 20.0708 10.7906C20.1352 10.8373 20.1833 10.9031 20.2083 10.9786C20.2334 11.054 20.2342 11.1355 20.2107 11.2114C20.1871 11.2874 20.1403 11.3541 20.077 11.4021V11.4004Z" fill="#FFD700"/>
</svg>
