<svg width="37" height="37" viewBox="0 0 37 37" fill="none" xmlns="http://www.w3.org/2000/svg">
<path d="M28.8098 24.3494C30.5377 22.3168 31.5695 19.7592 31.5695 16.9789C31.5695 10.3607 25.7336 5 18.5348 5C11.3359 5 5.5 10.3607 5.5 16.9789C5.5 23.5971 11.3359 28.9572 18.5348 28.9572C20.1197 28.9597 21.6936 28.6934 23.1895 28.1697C23.2744 28.1407 23.3664 28.1396 23.452 28.1666C23.5376 28.1936 23.6123 28.2472 23.6652 28.3197C24.7539 29.7898 26.4549 30.824 28.3463 31.2447C28.4135 31.2586 28.4835 31.2452 28.5408 31.2075C28.5981 31.1698 28.6382 31.1109 28.6521 31.0438C28.66 31.0069 28.6595 30.9688 28.6509 30.9321C28.6423 30.8955 28.6257 30.8612 28.6023 30.8316C27.8795 29.8937 27.5057 28.7334 27.5451 27.5499C27.5846 26.3664 28.0348 25.2336 28.8186 24.3459L28.8098 24.3494ZM24.7176 15.5703L21.3602 18.1186L22.5777 22.1533C22.6008 22.2291 22.5996 22.3102 22.5744 22.3852C22.5492 22.4603 22.5012 22.5257 22.4372 22.5722C22.3731 22.6188 22.2961 22.6442 22.2169 22.6449C22.1377 22.6457 22.0602 22.6217 21.9953 22.5764L18.5348 20.1711L15.0742 22.5781C15.0092 22.6233 14.9318 22.6471 14.8526 22.6463C14.7735 22.6455 14.6965 22.6201 14.6325 22.5736C14.5684 22.5272 14.5204 22.4619 14.4951 22.3869C14.4698 22.3119 14.4684 22.2309 14.4912 22.1551L15.7094 18.1203L12.352 15.5721C12.2889 15.5243 12.2422 15.458 12.2185 15.3825C12.1948 15.307 12.1953 15.2259 12.2198 15.1507C12.2442 15.0754 12.2916 15.0096 12.3552 14.9625C12.4188 14.9154 12.4955 14.8892 12.5746 14.8877L16.7863 14.7992L18.1727 10.8195C18.1986 10.7448 18.2472 10.68 18.3117 10.6342C18.3762 10.5883 18.4533 10.5637 18.5324 10.5637C18.6115 10.5637 18.6887 10.5883 18.7532 10.6342C18.8176 10.68 18.8662 10.7448 18.8922 10.8195L20.2785 14.7992L24.4902 14.8877C24.5698 14.8883 24.6471 14.9137 24.7115 14.9605C24.7758 15.0073 24.8239 15.073 24.849 15.1485C24.874 15.224 24.8748 15.3054 24.8513 15.3814C24.8277 15.4573 24.781 15.524 24.7176 15.5721V15.5703Z" fill="black"/>
</svg>
