<svg width="36" height="35" viewBox="0 0 36 35" fill="none" xmlns="http://www.w3.org/2000/svg">
<path d="M28.5 19.8335C28.5 22.6183 27.3938 25.289 25.4246 27.2581C23.4555 29.2272 20.7848 30.3335 18 30.3335C15.2152 30.3335 12.5445 29.2272 10.5754 27.2581C8.60625 25.289 7.5 22.6183 7.5 19.8335C7.50107 17.7874 8.10018 15.7863 9.22363 14.0762C10.3471 12.3662 11.9459 11.0218 13.8233 10.2085L14.234 10.5282L16.04 11.9305C14.2721 12.3667 12.7009 13.3815 11.5763 14.8136C10.4516 16.2456 9.83809 18.0126 9.83333 19.8335C9.83333 24.3368 13.4967 28.0002 18 28.0002C22.5033 28.0002 26.1667 24.3368 26.1667 19.8335C26.1619 18.0126 25.5484 16.2456 24.4237 14.8136C23.2991 13.3815 21.7279 12.3667 19.96 11.9305L22.1767 10.2085C24.0541 11.0218 25.6529 12.3662 26.7764 14.0762C27.8998 15.7863 28.4989 17.7874 28.5 19.8335ZM18 10.5002L23.8333 5.96183L21.5 2.3335H14.5L12.1667 5.96183L15.6667 8.68483L18 10.5002Z" fill="black"/>
</svg>
