<svg width="31" height="31" viewBox="0 0 31 31" fill="none" xmlns="http://www.w3.org/2000/svg">
<path d="M8.775 13.7375C10.575 17.275 13.475 20.1625 17.0125 21.975L19.7625 19.225C20.1 18.8875 20.6 18.775 21.0375 18.925C22.4375 19.3875 23.95 19.6375 25.5 19.6375C26.1875 19.6375 26.75 20.2 26.75 20.8875V25.25C26.75 25.9375 26.1875 26.5 25.5 26.5C13.7625 26.5 4.25 16.9875 4.25 5.25C4.25 4.5625 4.8125 4 5.5 4L9.875 4C10.5625 4 11.125 4.5625 11.125 5.25C11.125 6.8125 11.375 8.3125 11.8375 9.7125C11.975 10.15 11.875 10.6375 11.525 10.9875L8.775 13.7375Z" fill="black"/>
</svg>
