<svg width="31" height="31" viewBox="0 0 31 31" fill="none" xmlns="http://www.w3.org/2000/svg">
<path d="M25.8125 3.6875H5.1875C4.85598 3.6875 4.53804 3.8192 4.30362 4.05362C4.0692 4.28804 3.9375 4.60598 3.9375 4.9375V25.5625C3.9375 25.894 4.0692 26.212 4.30362 26.4464C4.53804 26.6808 4.85598 26.8125 5.1875 26.8125H25.8125C26.144 26.8125 26.462 26.6808 26.6964 26.4464C26.9308 26.212 27.0625 25.894 27.0625 25.5625V4.9375C27.0625 4.60598 26.9308 4.28804 26.6964 4.05362C26.462 3.8192 26.144 3.6875 25.8125 3.6875Z" stroke="black" stroke-width="2" stroke-linecap="round" stroke-linejoin="round"/>
<path d="M6.5 26.7499L13.5069 19.7168L16 22.4998L15.5 15.4998L18.5 18.4998V11.9998L20.5 13.4998L27.0625 5.95801" fill="#D9D9D9"/>
<path d="M6.5 26.7499L13.5069 19.7168L16 22.4998L15.5 15.4998L18.5 18.4998V11.9998L20.5 13.4998L27.0625 5.95801" stroke="black" stroke-width="2" stroke-linecap="round" stroke-linejoin="round"/>
<path d="M6.60406 14.7587C6.84996 15.0691 7.16675 15.3159 7.52783 15.4784C7.88891 15.6408 8.28371 15.7143 8.67906 15.6925M8.67906 15.6925H9.92469M8.67906 15.6925L9.19781 15.6925M9.92469 15.6925C10.4751 15.6925 11.003 15.4739 11.3922 15.0847C11.7814 14.6955 12 14.1676 12 13.6172C12 13.0668 11.7814 12.5389 11.3922 12.1497C11.003 11.7605 10.4751 11.5419 9.92469 11.5419M9.92469 15.6925L9.19781 15.6925M9.92469 11.5419H8.57531M9.92469 11.5419L9.19781 11.5419M8.57531 11.5419C8.02491 11.5419 7.49704 11.3232 7.10785 10.934C6.71865 10.5448 6.5 10.017 6.5 9.46656C6.5 8.91616 6.71865 8.38829 7.10785 7.99909C7.49704 7.6099 8.02491 7.39125 8.57531 7.39125M8.57531 11.5419L9.19781 11.5419M8.57531 7.39125H9.82094M8.57531 7.39125L9.19781 7.39126M9.82094 7.39125C10.2188 7.34608 10.6215 7.40896 10.9866 7.57328C11.3518 7.73759 11.6659 7.99727 11.8959 8.325M9.82094 7.39125L9.19781 7.39126M9.19781 15.6925V11.5419M9.19781 15.6925L9.19781 16.6263V6.25L9.19781 7.39126M9.19781 11.5419V7.39126" stroke="#FFD700" stroke-width="1.7" stroke-linecap="round" stroke-linejoin="round"/>
</svg>
