<svg width="13" height="14" viewBox="0 0 13 14" fill="none" xmlns="http://www.w3.org/2000/svg">
    <path fill-rule="evenodd" clip-rule="evenodd" d="M8.14386 7.022V12.18C8.14428 12.4853 7.97086 12.7643 7.69686 12.899L5.59686 13.939C5.41509 14.029 5.1997 14.0186 5.02745 13.9115C4.85519 13.8044 4.75057 13.6158 4.75086 13.413V7.018C4.7511 6.38986 4.51803 5.78402 4.09686 5.318L0.147861 0.953001C-0.00377122 0.785869 -0.0425257 0.545016 0.0490257 0.338755C0.140577 0.132493 0.345195 -0.000335933 0.570861 6.38122e-07H12.3509C12.5767 0.000235184 12.7813 0.133604 12.8726 0.340212C12.9638 0.54682 12.9248 0.787828 12.7729 0.955001L8.80386 5.316C8.37912 5.78266 8.14378 6.39099 8.14386 7.022Z" fill="#C1C7D0"/>
</svg>
