<svg width="22" height="20" viewBox="0 0 22 20" fill="none" xmlns="http://www.w3.org/2000/svg">
<path d="M4.73687 5.26316C3.46369 5.26316 2.40168 4.35906 2.15786 3.1579H0V2.10526H2.15786C2.40168 0.904097 3.46369 0 4.73687 0C6.00993 0 7.07194 0.904097 7.31576 2.10526H21.0526V3.1579H7.31576C7.13726 4.03716 6.52049 4.75726 5.70326 5.08006C5.43427 5.19784 5.13702 5.26316 4.82456 5.26316L4.7827 5.26276L4.73687 5.26316Z" fill="#1BAAA0"/>
<path d="M15.2632 12.6316C13.99 12.6316 12.928 11.7275 12.6842 10.5263H0V9.47368H12.6842C12.928 8.27252 13.99 7.36842 15.2632 7.36842C16.5363 7.36842 17.5983 8.27252 17.8421 9.47368H21.0526V10.5263H17.8421C17.5983 11.7275 16.5363 12.6316 15.2632 12.6316Z" fill="#1BAAA0"/>
<path d="M8.94733 20C7.67426 20 6.61225 19.0959 6.36843 17.8947H0V16.8421H6.36843C6.61225 15.6409 7.67426 14.7368 8.94733 14.7368C10.2205 14.7368 11.2825 15.6409 11.5263 16.8421H21.0526V17.8947H11.5263C11.2825 19.0959 10.2205 20 8.94733 20Z" fill="#1BAAA0"/>
</svg>
