<svg width="33" height="34" viewBox="0 0 33 34" fill="none" xmlns="http://www.w3.org/2000/svg">
<path d="M9.68778 7.2627L7.78982 8.3918C4.63662 10.2668 3.05933 11.2057 2.31934 12.7481C1.57797 14.2905 1.83834 16.0957 2.35908 19.7047L2.74141 22.3557C3.40877 26.9926 3.74314 29.3097 5.35332 30.6947C6.96349 32.0797 9.32463 32.0797 14.0483 32.0797H17.0795C21.8032 32.0797 24.1643 32.0797 25.7745 30.6947C27.3846 29.3097 27.719 26.9926 28.3864 22.3557L28.7673 19.7047" stroke="#FFD700" stroke-width="2.2"/>
<path d="M20.2702 30.9851V24.4157C20.2702 22.5579 20.2702 21.629 19.6471 21.0522C19.0268 20.4741 18.0255 20.4741 16.0216 20.4741C14.0191 20.4741 13.0178 20.4741 12.3961 21.0522M11.7729 30.9851V24.4157" stroke="#FFD700" stroke-width="2.2" stroke-linecap="round" stroke-linejoin="round"/>
<path d="M19.0898 14.0146C19.0898 14.7405 18.779 15.4367 18.2257 15.9501C17.6724 16.4634 16.9219 16.7518 16.1394 16.7518C15.3569 16.7518 14.6064 16.4634 14.0531 15.9501C13.4998 15.4367 13.189 14.7405 13.189 14.0146C13.189 13.2886 13.4998 12.5924 14.0531 12.0791C14.6064 11.5657 15.3569 11.2773 16.1394 11.2773C16.9219 11.2773 17.6724 11.5657 18.2257 12.0791C18.779 12.5924 19.0898 13.2886 19.0898 14.0146Z" stroke="#FFD700" stroke-width="2.2"/>
<path d="M31.8593 13.029L19.8717 4.133C19.087 3.55064 18.112 3.23337 17.1071 3.23337C16.1023 3.23337 15.1273 3.55064 14.3426 4.133L13.189 4.98838M22.2704 5.50161V2.76438C22.2704 2.58289 22.3481 2.40884 22.4864 2.28051C22.6248 2.15217 22.8124 2.08008 23.008 2.08008H26.696C26.8344 2.20841 27.4336 2.58289 27.4336 2.76438V9.60744M28.9089 10.9761V16.4505" stroke="#FFD700" stroke-width="2.2" stroke-linecap="round"/>
</svg>
