<svg width="30" height="30" viewBox="0 0 30 30" fill="none" xmlns="http://www.w3.org/2000/svg">
<path fill-rule="evenodd" clip-rule="evenodd" d="M28.5069 18.4908L25.5572 16.205C24.7033 15.5436 24.5228 14.4601 25.1563 13.7987L27.3439 11.5113C27.9774 10.85 27.677 10.2346 26.6748 10.138L23.2148 9.81552C22.2148 9.72337 21.5409 8.87472 21.7248 7.93391L22.6942 2.90589C22.876 1.96211 22.4041 1.62027 21.6462 2.14195L18.0422 4.62401C17.864 4.74859 17.6553 4.8312 17.4291 4.86676C17.203 4.90231 16.964 4.89006 16.7269 4.83076C16.4898 4.77147 16.2596 4.66637 16.0505 4.52193C15.8413 4.3775 15.6576 4.19677 15.5107 3.99086L13.6236 1.39585C12.9886 0.521925 12.1805 0.518952 11.8263 1.38396L10.8655 3.73225C10.5092 4.60172 9.42377 4.97031 8.45529 4.55861L5.89363 3.4677C4.91994 3.05154 4.30803 3.53012 4.52849 4.53186L5.05637 6.93217C5.27833 7.93391 4.70921 8.96389 3.7959 9.2225L1.60036 9.83781C0.688527 10.0964 0.638323 10.8485 1.49224 11.5099L4.44216 13.7972C5.29607 14.4586 5.47661 15.5421 4.84311 16.2035L2.65547 18.4908C2.02197 19.1522 2.3253 19.7943 3.32829 19.9132L6.50735 20.2907C7.51034 20.4096 8.20383 21.2865 8.04873 22.2392L7.2581 27.0814C7.103 28.0341 7.61214 28.4027 8.38915 27.9063L11.6995 25.7869C12.0875 25.5504 12.5763 25.4815 13.0704 25.5936C13.5646 25.7057 14.0287 25.9908 14.3723 26.3933L16.2736 28.6806C16.9654 29.5114 17.7894 29.4669 18.1012 28.5796L19.0092 26.0039C19.1606 25.5765 19.4875 25.253 19.9203 25.1023C20.3531 24.9515 20.8575 24.9854 21.326 25.1968L24.1199 26.4854C25.0829 26.9268 25.6896 26.4706 25.4696 25.4718L24.9398 23.0685C24.7208 22.0668 25.2874 21.0398 26.2037 20.7811L28.3958 20.1629C29.3106 19.9042 29.3608 19.1522 28.5069 18.4908ZM11.9225 12.0002V19.0002H10.9343L8.83427 14.9169V19.0002H7.80486V12.0002H8.83427L10.8931 16.0836V12.0002H11.9225ZM16.0402 12.0002V13.4702H13.9813V14.7769H16.0402V16.2469H13.9813V17.5419H16.0402V19.0002H12.746V12.0002H16.0402ZM21.5637 18.6585C21.7181 18.4397 21.8049 18.143 21.8049 17.8336V12.0002H20.7754V17.2502H19.8531V13.1669H18.8237V17.2502H17.8931V12.0002H16.8637V17.8336C16.8637 18.143 16.9504 18.4397 17.1049 18.6585C17.2593 18.8773 17.4688 19.0002 17.6872 19.0002H20.9813C21.1997 19.0002 21.4092 18.8773 21.5637 18.6585Z" fill="url(#paint0_linear_781_826)"/>
<defs>
<linearGradient id="paint0_linear_781_826" x1="14.9999" y1="0.000190764" x2="14.9999" y2="30.0002" gradientUnits="userSpaceOnUse">
<stop offset="0.322917" stop-color="#FFD700"/>
<stop offset="1" stop-color="#FF9900"/>
</linearGradient>
</defs>
</svg>
