<svg width="29" height="27" viewBox="0 0 29 27" fill="none" xmlns="http://www.w3.org/2000/svg">
<path d="M17.7175 9.50312C21.1693 15.4817 20.8172 22.1472 16.931 24.3909C13.0449 26.6346 7.09634 23.6067 3.64456 17.6281C0.192783 11.6494 0.544896 4.98393 4.43102 2.74032C8.31715 0.496659 14.2657 3.52448 17.7175 9.50312Z" stroke="url(#paint0_linear_104_431)" stroke-width="2.5" stroke-linecap="round" stroke-linejoin="round"/>
<path d="M10.6812 9.50312C7.22943 15.4817 7.58149 22.1472 11.4676 24.3909C15.3537 26.6346 21.3023 23.6067 24.7541 17.6281C28.2059 11.6494 27.8537 4.98393 23.9676 2.74032C20.0815 0.496659 14.1329 3.52448 10.6812 9.50312Z" stroke="url(#paint1_linear_104_431)" stroke-width="2.5" stroke-linecap="round" stroke-linejoin="round"/>
<path d="M14.1152 5.03076C15.4559 6.22307 16.696 7.73389 17.7175 9.50314C21.1693 15.4818 20.8172 22.1473 16.931 24.3909C16.1197 24.8594 15.2184 25.098 14.2688 25.128" stroke="url(#paint2_linear_104_431)" stroke-width="2.5" stroke-linecap="round" stroke-linejoin="round"/>
<defs>
<linearGradient id="paint0_linear_104_431" x1="10.681" y1="2" x2="10.681" y2="25.1312" gradientUnits="userSpaceOnUse">
<stop stop-color="#FFD700"/>
<stop offset="1" stop-color="#FF9900"/>
</linearGradient>
<linearGradient id="paint1_linear_104_431" x1="17.7176" y1="2" x2="17.7176" y2="25.1312" gradientUnits="userSpaceOnUse">
<stop stop-color="#FFD700"/>
<stop offset="1" stop-color="#FF9900"/>
</linearGradient>
<linearGradient id="paint2_linear_104_431" x1="17.1039" y1="5.03076" x2="17.1039" y2="25.128" gradientUnits="userSpaceOnUse">
<stop stop-color="#FFD700"/>
<stop offset="1" stop-color="#FF9900"/>
</linearGradient>
</defs>
</svg>
