<svg width="40" height="41" viewBox="0 0 40 41" fill="none" xmlns="http://www.w3.org/2000/svg">
<g filter="url(#filter0_d_639_733)">
<path fill-rule="evenodd" clip-rule="evenodd" d="M18.625 7.00007C16.4701 7.00007 14.4035 7.8561 12.8798 9.37983C11.356 10.9036 10.5 12.9702 10.5 15.1251C10.5 17.28 11.356 19.3466 12.8798 20.8703C14.4035 22.394 16.4701 23.2501 18.625 23.2501C20.7799 23.2501 22.8465 22.394 24.3702 20.8703C25.894 19.3466 26.75 17.28 26.75 15.1251C26.75 12.9702 25.894 10.9036 24.3702 9.37983C22.8465 7.8561 20.7799 7.00007 18.625 7.00007ZM8 15.1251C8.00014 13.4308 8.40546 11.7612 9.18212 10.2554C9.95878 8.74963 11.0843 7.45144 12.4647 6.46912C13.8451 5.4868 15.4404 4.84884 17.1176 4.60846C18.7947 4.36808 20.505 4.53226 22.1057 5.0873C23.7065 5.64233 25.1513 6.57213 26.3197 7.79912C27.488 9.02611 28.346 10.5147 28.822 12.1407C29.298 13.7667 29.3783 15.483 29.0561 17.1463C28.734 18.8097 28.0187 20.3719 26.97 21.7026L31.535 26.2676C31.7627 26.5033 31.8887 26.8191 31.8858 27.1468C31.883 27.4746 31.7515 27.7881 31.5198 28.0198C31.288 28.2516 30.9745 28.3831 30.6468 28.3859C30.319 28.3888 30.0033 28.2628 29.7675 28.0351L25.2025 23.4701C23.6358 24.7051 21.753 25.474 19.7697 25.6889C17.7863 25.9039 15.7825 25.5561 13.9876 24.6854C12.1927 23.8146 10.6792 22.4562 9.62029 20.7654C8.56138 19.0747 7.99987 17.12 8 15.1251ZM17.375 10.7501C17.375 10.4186 17.5067 10.1006 17.7411 9.86619C17.9755 9.63177 18.2935 9.50007 18.625 9.50007C20.1168 9.50007 21.5476 10.0927 22.6025 11.1476C23.6574 12.2025 24.25 13.6332 24.25 15.1251C24.25 15.4566 24.1183 15.7745 23.8839 16.009C23.6495 16.2434 23.3315 16.3751 23 16.3751C22.6685 16.3751 22.3505 16.2434 22.1161 16.009C21.8817 15.7745 21.75 15.4566 21.75 15.1251C21.75 14.2963 21.4208 13.5014 20.8347 12.9154C20.2487 12.3293 19.4538 12.0001 18.625 12.0001C18.2935 12.0001 17.9755 11.8684 17.7411 11.634C17.5067 11.3995 17.375 11.0816 17.375 10.7501Z" fill="black"/>
</g>
<defs>
<filter id="filter0_d_639_733" x="0" y="0.500977" width="39.886" height="39.885" filterUnits="userSpaceOnUse" color-interpolation-filters="sRGB">
<feFlood flood-opacity="0" result="BackgroundImageFix"/>
<feColorMatrix in="SourceAlpha" type="matrix" values="0 0 0 0 0 0 0 0 0 0 0 0 0 0 0 0 0 0 127 0" result="hardAlpha"/>
<feOffset dy="4"/>
<feGaussianBlur stdDeviation="4"/>
<feComposite in2="hardAlpha" operator="out"/>
<feColorMatrix type="matrix" values="0 0 0 0 0 0 0 0 0 0 0 0 0 0 0 0 0 0 0.25 0"/>
<feBlend mode="normal" in2="BackgroundImageFix" result="effect1_dropShadow_639_733"/>
<feBlend mode="normal" in="SourceGraphic" in2="effect1_dropShadow_639_733" result="shape"/>
</filter>
</defs>
</svg>
