<svg width="34" height="34" viewBox="0 0 34 34" fill="none" xmlns="http://www.w3.org/2000/svg">
<g filter="url(#filter0_i_781_1342)">
<path fill-rule="evenodd" clip-rule="evenodd" d="M24.6344 20.2957C24.2284 20.0927 22.2378 19.1144 21.8672 18.9782C21.4966 18.8433 21.2268 18.7765 20.9557 19.1826C20.6859 19.5859 19.9106 20.4987 19.6749 20.7685C19.4378 21.0397 19.2021 21.0724 18.7975 20.8707C18.3928 20.6663 17.0875 20.2399 15.5411 18.861C14.338 17.7874 13.5246 16.4617 13.2889 16.0556C13.0532 15.651 13.263 15.4316 13.466 15.23C13.6486 15.0487 13.8707 14.7572 14.0737 14.5215C14.2767 14.2844 14.3435 14.1154 14.4783 13.8443C14.6146 13.5745 14.5465 13.3388 14.4443 13.1358C14.3435 12.9328 13.5341 10.9394 13.1962 10.1288C12.8679 9.33986 12.5341 9.4475 12.2861 9.43388C12.049 9.42298 11.7792 9.42025 11.5095 9.42025C11.2397 9.42025 10.801 9.52108 10.4304 9.9271C10.0584 10.3318 9.01336 11.3114 9.01336 13.3047C9.01336 15.2967 10.4631 17.2219 10.6661 17.4931C10.8691 17.7628 13.5205 21.8531 17.5821 23.6066C18.5495 24.0235 19.303 24.2729 19.8902 24.4582C20.8603 24.7675 21.7432 24.7239 22.4408 24.6189C23.2174 24.5031 24.8361 23.6393 25.174 22.6937C25.5105 21.7482 25.5105 20.9375 25.4097 20.7685C25.3089 20.5996 25.0391 20.4987 24.6331 20.2957H24.6344ZM17.2469 30.3823H17.2415C14.8291 30.3828 12.461 29.7343 10.3854 28.5048L9.8949 28.2132L4.79643 29.5512L6.15757 24.5808L5.83738 24.0712C4.48869 21.9244 3.77496 19.4398 3.77864 16.9045C3.78137 9.47884 9.82269 3.43751 17.2524 3.43751C20.8494 3.43751 24.2311 4.84089 26.7735 7.38604C28.0276 8.63488 29.0215 10.12 29.6978 11.7554C30.3742 13.3909 30.7195 15.1442 30.7139 16.914C30.7112 24.3396 24.6698 30.3823 17.2469 30.3823ZM28.7083 5.45265C27.2071 3.94153 25.4209 2.74337 23.4533 1.92759C21.4856 1.11181 19.3756 0.694641 17.2456 0.700251C8.31576 0.700251 1.04547 7.96919 1.04274 16.9031C1.04138 19.7589 1.78667 22.5466 3.20503 25.0032L0.906494 33.4003L9.49569 31.1467C11.8717 32.4412 14.5343 33.1195 17.2401 33.1196H17.2469C26.1768 33.1196 33.4471 25.8506 33.4498 16.9154C33.4564 14.7862 33.0407 12.6768 32.2268 10.7092C31.413 8.74168 30.2171 6.95504 28.7083 5.45265Z" fill="white"/>
</g>
<defs>
<filter id="filter0_i_781_1342" x="0.906494" y="0.700195" width="32.5433" height="33.9002" filterUnits="userSpaceOnUse" color-interpolation-filters="sRGB">
<feFlood flood-opacity="0" result="BackgroundImageFix"/>
<feBlend mode="normal" in="SourceGraphic" in2="BackgroundImageFix" result="shape"/>
<feColorMatrix in="SourceAlpha" type="matrix" values="0 0 0 0 0 0 0 0 0 0 0 0 0 0 0 0 0 0 127 0" result="hardAlpha"/>
<feOffset dy="1.2"/>
<feGaussianBlur stdDeviation="2.25"/>
<feComposite in2="hardAlpha" operator="arithmetic" k2="-1" k3="1"/>
<feColorMatrix type="matrix" values="0 0 0 0 0 0 0 0 0 0 0 0 0 0 0 0 0 0 0.2 0"/>
<feBlend mode="normal" in2="shape" result="effect1_innerShadow_781_1342"/>
</filter>
</defs>
</svg>
